<?xml version="1.0" encoding="UTF-8" standalone="no"?>
<!-- Created with Inkscape (http://www.inkscape.org/) -->

<svg
   width="1280"
   height="600"
   viewBox="0 0 338.66666 158.75"
   version="1.1"
   id="svg14193"
   inkscape:version="1.1.2 (0a00cf5339, 2022-02-04)"
   sodipodi:docname="gongt365-typo.svg"
   xmlns:inkscape="http://www.inkscape.org/namespaces/inkscape"
   xmlns:sodipodi="http://sodipodi.sourceforge.net/DTD/sodipodi-0.dtd"
   xmlns="http://www.w3.org/2000/svg"
   xmlns:svg="http://www.w3.org/2000/svg">
  <sodipodi:namedview
     id="namedview14195"
     pagecolor="#ffffff"
     bordercolor="#666666"
     borderopacity="1.0"
     inkscape:pageshadow="2"
     inkscape:pageopacity="0.0"
     inkscape:pagecheckerboard="0"
     inkscape:document-units="mm"
     showgrid="false"
     units="px"
     inkscape:zoom="0.52347033"
     inkscape:cx="461.3442"
     inkscape:cy="372.51395"
     inkscape:window-width="1920"
     inkscape:window-height="989"
     inkscape:window-x="0"
     inkscape:window-y="0"
     inkscape:window-maximized="1"
     inkscape:current-layer="layer1" />
  <defs
     id="defs14190" />
  <g
     inkscape:label="Layer 1"
     inkscape:groupmode="layer"
     id="layer1">
    <g
       id="path5714"
       style="fill:#000000;stroke:#000000;stroke-width:0.323374;stroke-miterlimit:4;stroke-dasharray:none;stroke-opacity:1"
       transform="matrix(6.7871392,0,0,6.7871392,-407.32156,-91.397148)">
      <path
         style="color:#000000;-inkscape-font-specification:'NanumSquareB, Bold';fill:#000000;stroke:#000000;stroke-width:0.323374;stroke-miterlimit:4;stroke-dasharray:none;stroke-opacity:1"
         d="m 71.997785,24.097546 v 1.242255 H 61.311388 v -1.242255 h 4.494211 v -3.416198 h 1.478874 v 3.416198 z"
         id="path13957" />
      <path
         style="color:#000000;-inkscape-font-specification:'NanumSquareB, Bold';fill:#000000;stroke:#000000;stroke-width:0.323374;stroke-miterlimit:4;stroke-dasharray:none;stroke-opacity:1"
         d="m 65.677734,20.552734 v 3.416016 h -4.49414 v 1.5 h 10.943359 v -1.5 h -0.128906 -4.585938 v -3.416016 z m 0.25586,0.257813 h 1.222656 v 3.416015 h 4.712891 v 0.984375 H 61.439453 v -0.984375 h 4.494141 z"
         id="path13959" />
    </g>
    <g
       id="path5716"
       transform="matrix(7.7343239,0,0,7.7343239,-125.38218,-160.35951)"
       style="fill:#000000;stroke:#000000;stroke-width:0.12929378;stroke-miterlimit:4;stroke-dasharray:none;stroke-opacity:1">
      <g
         id="path6144"
         style="fill:#000000;stroke:#000000;stroke-width:0.12929378;stroke-miterlimit:4;stroke-dasharray:none;stroke-opacity:1">
        <path
           style="color:#000000;-inkscape-font-specification:'NanumSquareB, Bold';fill:#000000;stroke:#000000;stroke-width:0.12929378;stroke-miterlimit:4;stroke-dasharray:none;stroke-opacity:1"
           d="m 36.325609,28.682762 h -6.593416 v -5.228166 h 6.44525 v 0.889 h -5.3975 v 1.291166 h 5.323416 v 0.867833 h -5.323416 v 1.291167 h 5.545666 z"
           id="path13963" />
        <path
           style="color:#000000;-inkscape-font-specification:'NanumSquareB, Bold';fill:#000000;stroke:#000000;stroke-width:0.12929378;stroke-miterlimit:4;stroke-dasharray:none;stroke-opacity:1"
           d="m 36.325609,28.682762 h -6.593416 v -5.228166 h 6.44525 v 0.889 h -5.3975 v 1.291166 h 5.323416 v 0.867833 h -5.323416 v 1.291167 h 5.545666 z"
           id="path13965" />
      </g>
      <g
         id="path6146"
         style="fill:#000000;stroke:#000000;stroke-width:0.12929378;stroke-miterlimit:4;stroke-dasharray:none;stroke-opacity:1">
        <path
           style="color:#000000;-inkscape-font-specification:'NanumSquareB, Bold';fill:#000000;stroke:#000000;stroke-width:0.12929378;stroke-miterlimit:4;stroke-dasharray:none;stroke-opacity:1"
           d="m 29.548828,23.271484 v 5.59375 h 6.958984 v -0.18164 -1.072266 h -5.544921 v -0.925781 h 5.322265 v -1.232422 h -5.322265 v -0.927734 h 5.396484 v -1.253907 z m 0.365234,0.365235 h 6.080079 v 0.523437 h -5.396485 v 1.65625 h 5.322266 v 0.503906 h -5.322266 v 1.65625 h 5.544922 V 28.5 h -6.228516 z"
           id="path13969" />
        <path
           style="color:#000000;-inkscape-font-specification:'NanumSquareB, Bold';fill:#000000;stroke:#000000;stroke-width:0.12929378;stroke-miterlimit:4;stroke-dasharray:none;stroke-opacity:1"
           d="m 29.548828,23.271484 v 5.59375 h 6.958984 v -0.18164 -1.072266 h -5.544921 v -0.925781 h 5.322265 v -1.232422 h -5.322265 v -0.927734 h 5.396484 v -1.253907 z m 0.365234,0.365235 h 6.080079 v 0.523437 h -5.396485 v 1.65625 h 5.322266 v 0.503906 h -5.322266 v 1.65625 h 5.544922 V 28.5 h -6.228516 z"
           id="path13971" />
      </g>
    </g>
    <g
       id="path7113"
       style="fill:#000000;stroke:#000000;stroke-width:0.14733748;stroke-miterlimit:4;stroke-dasharray:none;stroke-opacity:1"
       transform="matrix(6.7871392,0,0,6.7871392,-407.32156,-91.977854)">
      <path
         style="color:#000000;-inkscape-font-specification:'NanumSquareB, Bold';fill:#000000;stroke:#000000;stroke-width:0.14733748;stroke-miterlimit:4;stroke-dasharray:none;stroke-opacity:1"
         d="m 62.529913,16.431837 h 8.505959 v 2.14089 c 0,0.195181 -0.0095,0.451355 -0.02831,0.768525 -0.0095,0.304971 -0.02831,0.634336 -0.05661,0.988102 -0.02831,0.353763 -0.06605,0.719727 -0.113242,1.097893 -0.04719,0.365962 -0.09907,0.713628 -0.155684,1.042994 l -1.541501,-0.201276 c 0.12266,-0.695334 0.207578,-1.354071 0.254755,-1.976208 0.04719,-0.634338 0.07076,-1.201581 0.07076,-1.701733 v -0.622137 h -6.93615 z"
         id="path13975" />
      <path
         style="color:#000000;-inkscape-font-specification:'NanumSquareB, Bold';fill:#000000;stroke:#000000;stroke-width:0.14733748;stroke-miterlimit:4;stroke-dasharray:none;stroke-opacity:1"
         d="m 62.529913,16.431837 h 8.505959 v 2.14089 c 0,0.195181 -0.0095,0.451355 -0.02831,0.768525 -0.0095,0.304971 -0.02831,0.634336 -0.05661,0.988102 -0.02831,0.353763 -0.06605,0.719727 -0.113242,1.097893 -0.04719,0.365962 -0.09907,0.713628 -0.155684,1.042994 l -1.541501,-0.201276 c 0.12266,-0.695333 0.207578,-1.354072 0.254755,-1.976208 0.04719,-0.634337 0.07076,-1.201582 0.07076,-1.701733 v -0.622137 h -6.93615 z"
         id="path13977" />
    </g>
    <g
       id="path14140"
       style="font-size:13.57px;fill:#000000;stroke:#000000;stroke-width:0.158245"
       transform="matrix(9.2479536,0,0,9.2479536,-159.42585,-206.4335)">
      <path
         id="path13983"
         style="color:#000000;-inkscape-font-specification:'godoRounded R, Normal';fill:#000000;stroke:none;stroke-width:5.04023;-inkscape-stroke:none"
         d="m 763.04883,90.132812 v 0.002 c -11.11753,0 -21.18777,3.164302 -30.16992,9.580078 -8.83746,6.41428 -15.09986,14.8054 -18.66407,25.07032 -2.13496,5.97798 -3.17187,11.77281 -3.17187,17.35546 v 0.74805 h 29.54883 v -0.74805 c 0,-2.43595 0.47325,-4.92576 1.43164,-7.52734 v -0.0625 c 1.49985,-4.36356 4.13872,-7.84468 7.96289,-10.57617 3.96482,-2.87103 8.2872,-4.29297 13.0625,-4.29297 6.15463,0 11.36151,2.15442 15.74023,6.5332 4.37602,4.37599 6.53125,9.62662 6.53125,15.92578 0,6.15464 -2.15246,11.35953 -6.53125,15.73829 -4.37872,4.37875 -9.5856,6.53125 -15.74023,6.53125 h -23.94922 v 29.98437 h 23.94922 c 11.36128,0 21.01658,3.96971 29.05273,12.00586 8.03616,8.03616 12.00586,17.62895 12.00586,28.99023 0,11.36132 -3.9697,21.0146 -12.00586,29.05079 -8.03615,8.03612 -17.69145,12.00586 -29.05273,12.00586 -8.58288,0 -16.39188,-2.43265 -23.45117,-7.27735 -6.74563,-4.83843 -11.64696,-11.12495 -14.68164,-18.84961 -1.93908,-4.98682 -2.92383,-9.96124 -2.92383,-14.92969 v -0.74609 h -29.73633 v 0.74609 c 0,8.68012 1.69266,17.29386 5.10156,25.81641 5.25615,13.35346 13.77641,24.17137 25.56641,32.41016 11.93676,8.38415 25.35179,12.6289 40.125,12.6289 19.45289,0 36.12174,-6.98955 49.89258,-20.90234 13.91276,-13.7708 20.90039,-30.5002 20.90039,-49.95313 0,-12.22106 -2.98851,-23.68176 -8.95703,-34.33984 -5.72844,-10.1994 -13.55049,-18.34341 -23.26563,-24.69726 8.76589,-9.84134 13.4375,-21.2147 13.4375,-34.2129 0,-14.38478 -5.06543,-26.71383 -15.17969,-36.82812 C 789.62411,95.20206 777.29468,90.132844 763.04883,90.132812 Z"
         transform="matrix(0.03139636,0,0,0.03139636,15.460994,21.49041)" />
    </g>
    <g
       id="path14142"
       style="font-size:13.57px;fill:#000000;stroke:#000000;stroke-width:0.158245"
       transform="matrix(9.2479536,0,0,9.2479536,-159.42585,-206.4335)">
      <path
         id="path13989"
         style="color:#000000;-inkscape-font-specification:'godoRounded R, Normal';fill:#000000;stroke:none;stroke-width:5.04023;stroke-linecap:round;stroke-linejoin:bevel;-inkscape-stroke:none"
         d="m 933.18945,89.451172 -0.62109,0.435547 -56.85938,123.046871 v 0.0645 c -2.69521,7.80224 -4.10546,15.26294 -4.10546,22.39453 0,19.45111 6.9434,36.18364 20.71484,49.95508 13.91091,13.91088 30.68773,20.90039 50.14062,20.90039 19.45293,0 36.11983,-6.98763 49.89063,-20.90039 13.91279,-13.7708 20.90239,-30.50216 20.90239,-49.95508 0,-19.45293 -6.9915,-36.16725 -20.90239,-50.07813 -13.77144,-13.77143 -30.43952,-20.71484 -49.89063,-20.71484 -3.20979,0 -5.09149,0.29332 -7.02929,0.87109 -1.52661,0.45643 -3.6309,1.2032 -6.03516,1.99024 l 34.0293,-76.951174 -0.6836,-1.058594 z m 9.26953,104.945308 c 11.36132,0 20.95408,3.96971 28.99024,12.00586 8.03619,8.03619 12.00586,17.627 12.00586,28.98828 0,11.36132 -3.96967,21.01655 -12.00586,29.05274 -8.03616,8.03612 -17.62892,12.00586 -28.99024,12.00586 -11.36128,0 -21.01465,-3.96974 -29.05078,-12.00586 -8.03618,-8.03619 -12.00586,-17.69142 -12.00586,-29.05274 0,-11.36128 3.96968,-20.95209 12.00586,-28.98828 8.03613,-8.03615 17.6895,-12.00586 29.05078,-12.00586 z"
         transform="matrix(0.03139636,0,0,0.03139636,15.460994,21.49041)" />
    </g>
    <path
       id="path13995"
       style="color:#000000;font-size:13.57px;-inkscape-font-specification:'godoRounded R, Normal';fill:#000000;stroke:none;stroke-width:1.46345;-inkscape-stroke:none"
       d="m 303.73055,18.407611 -11.30161,33.229432 h 10.07894 l 0.072,-0.07258 c 2.37458,-2.656318 4.1484,-2.81222 7.68922,-2.81222 3.29878,0 6.08351,1.152614 8.41681,3.485927 2.3333,2.333323 3.48594,5.118601 3.48594,8.417376 0,3.29878 -1.15264,6.101629 -3.48594,8.434954 -2.3333,2.333307 -5.11803,3.485926 -8.41681,3.485926 -3.29878,0 -6.10219,-1.152619 -8.43551,-3.485926 -2.33321,-2.333444 -3.48594,-5.136171 -3.48594,-8.434954 v -0.217203 h -8.65159 v 0.217198 c 0,5.647669 2.01603,10.505428 6.01461,14.503991 4.03906,4.039056 8.91024,6.069041 14.55843,6.069041 5.64819,0 10.48746,-2.02944 14.48584,-6.069041 4.0396,-3.99838 6.06905,-8.855796 6.06905,-14.503991 0,-5.648196 -2.02999,-10.501237 -6.06905,-14.540289 -3.99855,-3.998563 -8.83818,-6.015163 -14.48584,-6.015163 -1.74784,0 -3.66276,0.360446 -5.68965,0.939672 l 5.09364,-14.1609 h 19.72408 v -8.471248 z"
       sodipodi:nodetypes="ccccssssscsccssscsssccccc" />
    <g
       id="path15078"
       style="fill:#000000;stroke:#000000;stroke-width:0.323374;stroke-miterlimit:4;stroke-dasharray:none;stroke-opacity:1"
       transform="matrix(6.7871392,0,0,6.7871392,-407.90227,-91.397148)">
      <path
         style="color:#000000;-inkscape-font-specification:'NanumSquareB, Bold';fill:#000000;stroke:#000000;stroke-width:0.323374;stroke-miterlimit:4;stroke-dasharray:none;stroke-opacity:1"
         d="m 85.045854,24.097539 v 1.242255 H 73.823931 v -1.242255 h 4.761978 1.478871 z"
         id="path13999" />
      <path
         style="color:#000000;-inkscape-font-specification:'NanumSquareB, Bold';fill:#000000;stroke:#000000;stroke-width:0.323374;stroke-miterlimit:4;stroke-dasharray:none;stroke-opacity:1"
         d="m 73.695312,23.96875 v 1.5 h 11.478516 v -1.5 h -0.128906 -4.980469 -1.478516 z m 0.257813,0.257812 h 4.632812 1.478516 4.853516 v 0.984375 H 73.953125 Z"
         id="path14001" />
    </g>
    <g
       id="rect3120"
       transform="matrix(1.0846563,0,0,1.0846563,-14.292796,-6.7195981)" />
    <g
       id="rect3122"
       transform="matrix(1.0846563,0,0,1.0846563,-14.292796,-6.7195981)" />
    <path
       id="path4061"
       style="color:#000000;fill:#000000;stroke:#000000;stroke-width:4.715;stroke-linecap:square;stroke-miterlimit:4;stroke-dasharray:none;stroke-opacity:1;paint-order:markers stroke fill"
       d="m 55.53232,134.43895 c 11.336906,0 20.613095,-9.27621 20.613095,-20.6131 0,-11.33691 -9.276189,-20.623399 -20.613095,-20.623399 m 0,8.596509 c 6.693451,0 12.026878,5.33342 12.026878,12.02689 0,6.69347 -5.333427,12.02687 -12.026878,12.02687 m -20.900269,0 H 55.53232 v 8.58623 H 34.632051 Z m 0,0 H 55.53232 v 8.58623 H 34.632051 Z m 0,-32.650268 H 55.53232 v 8.596508 H 34.632051 Z m 0,0 H 55.53232 v 8.596508 H 34.632051 Z m 0,3e-6 c -11.336906,0 -20.623346,9.286485 -20.623346,20.623395 0,11.33689 9.28644,20.61309 20.623346,20.6131 m 0,-8.58623 c -6.693449,0 -12.02688,-5.3334 -12.02688,-12.02687 0,-6.69345 5.333431,-12.02689 12.02688,-12.02689"
       sodipodi:nodetypes="csccsccccccccccccccccccccccsccsc" />
  </g>
</svg>
