<?xml version="1.0" encoding="UTF-8" standalone="no"?>
<!-- Created with Inkscape (http://www.inkscape.org/) -->

<svg
   width="720"
   height="720"
   viewBox="0 0 190.5 190.50001"
   version="1.1"
   id="svg5"
   inkscape:version="1.1.2 (0a00cf5339, 2022-02-04)"
   sodipodi:docname="gongt365-icon.svg"
   xmlns:inkscape="http://www.inkscape.org/namespaces/inkscape"
   xmlns:sodipodi="http://sodipodi.sourceforge.net/DTD/sodipodi-0.dtd"
   xmlns="http://www.w3.org/2000/svg"
   xmlns:svg="http://www.w3.org/2000/svg">
  <sodipodi:namedview
     id="namedview7"
     pagecolor="#ffffff"
     bordercolor="#666666"
     borderopacity="1.0"
     inkscape:pageshadow="2"
     inkscape:pageopacity="0.0"
     inkscape:pagecheckerboard="0"
     inkscape:document-units="mm"
     showgrid="false"
     units="px"
     inkscape:zoom="0.70710678"
     inkscape:cx="518.30927"
     inkscape:cy="429.92092"
     inkscape:window-width="1920"
     inkscape:window-height="989"
     inkscape:window-x="0"
     inkscape:window-y="0"
     inkscape:window-maximized="1"
     inkscape:current-layer="layer1"
     height="270px" />
  <defs
     id="defs2">
    <inkscape:path-effect
       effect="fillet_chamfer"
       id="path-effect14920"
       is_visible="true"
       lpeversion="1"
       satellites_param="F,0,0,1,0,0,0,1 @ F,0,0,1,0,0,0,1 @ F,0,0,1,0,0,0,1 @ F,0,0,1,0,0,0,1 @ F,0,0,1,0,0,0,1 @ F,0,0,1,0,0,0,1 @ F,0,1,1,0,8.73125,0,1 @ F,0,0,1,0,0,0,1"
       unit="px"
       method="auto"
       mode="F"
       radius="49"
       chamfer_steps="1"
       flexible="false"
       use_knot_distance="true"
       apply_no_radius="true"
       apply_with_radius="true"
       only_selected="true"
       hide_knots="false" />
    <rect
       x="58.265003"
       y="85.009598"
       width="381.11044"
       height="149.00558"
       id="rect1574" />
  </defs>
  <g
     inkscape:label="Layer 1"
     inkscape:groupmode="layer"
     id="layer1">
    <path
       id="path4931"
       style="fill:#00d455;fill-opacity:1;stroke:none;stroke-width:1.72191px;stroke-linecap:butt;stroke-linejoin:miter;stroke-opacity:1"
       d="m 75.048532,19.916094 0.0033,0.127798 C 34.815783,21.843729 3.1125273,54.973699 3.0844379,95.250016 c 6.9e-6,41.605764 33.7281491,75.333904 75.3339171,75.333904 21.801765,-0.002 42.533695,-9.44816 56.840125,-25.8994 l 0.0605,0.0605 c 17.93399,-18.90088 43.34596,-91.771772 51.63935,-116.536728 1.53119,-4.572293 -1.17684,-8.292219 -5.99898,-8.292219 H 78.418381 Z"
       sodipodi:nodetypes="ccccccccc"
       inkscape:path-effect="#path-effect14920"
       inkscape:original-d="m 75.048532,19.916094 0.0033,0.127798 C 34.815783,21.843729 3.1125273,54.973699 3.0844379,95.250016 c 6.9e-6,41.605764 33.7281491,75.333904 75.3339171,75.333904 21.801765,-0.002 42.533695,-9.44816 56.840125,-25.8994 l 0.0605,0.0605 C 157.0267,121.86695 189.6906,19.916073 189.6906,19.916073 H 78.418381 Z" />
    <path
       style="color:#000000;fill:#ffffff;stroke:#ffffff;stroke-width:5.30466;stroke-linecap:round;stroke-linejoin:bevel;stroke-opacity:1;-inkscape-stroke:none;paint-order:markers stroke fill"
       d="m 78.412381,45.27182 c -22.605872,0 -42.429867,15.203778 -48.280696,37.039377 -5.850833,21.835603 3.713512,44.924383 23.290777,56.227323 19.577261,11.30293 44.355746,8.03814 60.340508,-7.94662 15.98476,-15.98478 19.23921,-40.752898 7.93626,-60.330154 a 3.448029,3.448029 0 0 0 -4.70374,-1.264004 3.448029,3.448029 0 0 0 -1.26399,4.703741 c 9.759,16.903088 6.95291,38.209227 -6.84841,52.010547 -13.801308,13.8013 -35.107443,16.60739 -52.010531,6.84839 C 39.969476,122.80142 31.741963,102.94617 36.793594,84.093228 41.845226,65.240285 58.894377,52.161662 78.412381,52.161662 a 3.448029,3.448029 0 0 0 3.450103,-3.4501 3.448029,3.448029 0 0 0 -3.450103,-3.439742 z"
       id="path5783-9" />
    <path
       style="color:#000000;fill:#ffffff;stroke:#ffffff;stroke-width:7.33297;stroke-linecap:round;stroke-linejoin:bevel;stroke-miterlimit:4;stroke-dasharray:none;stroke-opacity:1;paint-order:markers stroke fill"
       d="m 78.414695,70.786611 c -11.059289,0 -20.757385,7.449453 -23.619739,18.131906 -2.862355,10.682456 1.818588,21.978463 11.396215,27.508103 9.577624,5.52965 21.701129,3.93174 29.521228,-3.88837 7.820101,-7.82009 9.418001,-19.943593 3.888361,-29.521222 a 2.2944101,2.2944101 0 0 0 -3.13689,-0.841098 2.2944101,2.2944101 0 0 0 -0.8411,3.136889 c 4.50227,7.798161 3.209606,17.617961 -3.157572,23.985141 -6.36717,6.36716 -16.186974,7.65984 -23.985134,3.15757 C 60.681905,107.95325 56.890526,98.80205 59.221071,90.104331 61.551617,81.406613 69.410158,75.378188 78.414695,75.378188 a 2.2944101,2.2944101 0 0 0 2.295791,-2.29579 2.2944101,2.2944101 0 0 0 -2.295791,-2.295787 z"
       id="path5783-4" />
  </g>
</svg>
