<?xml version="1.0" encoding="UTF-8" standalone="no"?>
<!-- Created with Inkscape (http://www.inkscape.org/) -->

<svg
   width="1280"
   height="600"
   viewBox="0 0 338.66666 158.75"
   version="1.1"
   id="svg14193"
   inkscape:version="1.1.2 (b8e25be833, 2022-02-05)"
   sodipodi:docname="gongt365-typo.svg"
   xmlns:inkscape="http://www.inkscape.org/namespaces/inkscape"
   xmlns:sodipodi="http://sodipodi.sourceforge.net/DTD/sodipodi-0.dtd"
   xmlns="http://www.w3.org/2000/svg"
   xmlns:svg="http://www.w3.org/2000/svg">
  <sodipodi:namedview
     id="namedview14195"
     pagecolor="#ffffff"
     bordercolor="#666666"
     borderopacity="1.0"
     inkscape:pageshadow="2"
     inkscape:pageopacity="0.0"
     inkscape:pagecheckerboard="0"
     inkscape:document-units="mm"
     showgrid="false"
     units="px"
     inkscape:zoom="0.26173516"
     inkscape:cx="177.6605"
     inkscape:cy="171.92952"
     inkscape:window-width="1920"
     inkscape:window-height="1017"
     inkscape:window-x="-8"
     inkscape:window-y="-8"
     inkscape:window-maximized="1"
     inkscape:current-layer="layer1" />
  <defs
     id="defs14190" />
  <g
     inkscape:label="Layer 1"
     inkscape:groupmode="layer"
     id="layer1">
    <g
       id="g14398"
       transform="translate(-3.1703808,-0.77203615)">
      <g
         id="path5714"
         style="fill:#4d4d4d"
         transform="matrix(6.1847807,0,0,6.1847807,-353.01745,-76.034193)">
        <path
           style="color:#000000;-inkscape-font-specification:'NanumSquareB, Bold';fill:#4d4d4d;stroke-width:0.257051;-inkscape-stroke:none"
           d="m 71.997785,24.097546 v 1.242255 H 61.311388 v -1.242255 h 4.494211 v -3.416198 h 1.478874 v 3.416198 z"
           id="path13957" />
        <path
           style="color:#000000;-inkscape-font-specification:'NanumSquareB, Bold';fill:#4d4d4d;-inkscape-stroke:none"
           d="m 65.677734,20.552734 v 3.416016 h -4.49414 v 1.5 h 10.943359 v -1.5 h -0.128906 -4.585938 v -3.416016 z m 0.25586,0.257813 h 1.222656 v 3.416015 h 4.712891 v 0.984375 H 61.439453 v -0.984375 h 4.494141 z"
           id="path13959" />
      </g>
      <g
         id="path5716"
         transform="matrix(7.0479028,0,0,7.0479028,-95.571008,-138.87615)"
         style="fill:#4d4d4d;stroke:#000000;stroke-width:0">
        <g
           id="path6144"
           style="fill:#4d4d4d">
          <path
             style="color:#000000;-inkscape-font-specification:'NanumSquareB, Bold';fill:#4d4d4d;stroke:none;-inkscape-stroke:none"
             d="m 36.325609,28.682762 h -6.593416 v -5.228166 h 6.44525 v 0.889 h -5.3975 v 1.291166 h 5.323416 v 0.867833 h -5.323416 v 1.291167 h 5.545666 z"
             id="path13963" />
          <path
             style="color:#000000;-inkscape-font-specification:'NanumSquareB, Bold';fill:#4d4d4d;stroke:none;-inkscape-stroke:none"
             d="m 36.325609,28.682762 h -6.593416 v -5.228166 h 6.44525 v 0.889 h -5.3975 v 1.291166 h 5.323416 v 0.867833 h -5.323416 v 1.291167 h 5.545666 z"
             id="path13965" />
        </g>
        <g
           id="path6146"
           style="fill:#4d4d4d">
          <path
             style="color:#000000;-inkscape-font-specification:'NanumSquareB, Bold';fill:#4d4d4d;stroke:none;-inkscape-stroke:none"
             d="m 29.548828,23.271484 v 5.59375 h 6.958984 v -0.18164 -1.072266 h -5.544921 v -0.925781 h 5.322265 v -1.232422 h -5.322265 v -0.927734 h 5.396484 v -1.253907 z m 0.365234,0.365235 h 6.080079 v 0.523437 h -5.396485 v 1.65625 h 5.322266 v 0.503906 h -5.322266 v 1.65625 h 5.544922 V 28.5 h -6.228516 z"
             id="path13969" />
          <path
             style="color:#000000;-inkscape-font-specification:'NanumSquareB, Bold';fill:#4d4d4d;stroke:none;-inkscape-stroke:none"
             d="m 29.548828,23.271484 v 5.59375 h 6.958984 v -0.18164 -1.072266 h -5.544921 v -0.925781 h 5.322265 v -1.232422 h -5.322265 v -0.927734 h 5.396484 v -1.253907 z m 0.365234,0.365235 h 6.080079 v 0.523437 h -5.396485 v 1.65625 h 5.322266 v 0.503906 h -5.322266 v 1.65625 h 5.544922 V 28.5 h -6.228516 z"
             id="path13971" />
        </g>
      </g>
      <path
         style="color:#000000;fill:#4d4d4d;stroke-width:6.18478;stroke-linecap:square;-inkscape-stroke:none;paint-order:markers stroke fill"
         d="m 58.705317,87.355146 c -13.333769,0 -24.255906,10.922187 -24.255906,24.255934 0,13.33375 10.922137,24.24385 24.255906,24.24386 13.33377,0 24.24385,-10.91011 24.24385,-24.24386 0,-13.333747 -10.91008,-24.255934 -24.24385,-24.255934 z m 0,10.110663 c 7.872422,0 14.14527,6.272831 14.14527,14.145271 0,7.87244 -6.272848,14.14527 -14.14527,14.14527 -7.872422,0 -14.145274,-6.27283 -14.145274,-14.14527 0,-7.87243 6.272852,-14.145265 14.145274,-14.145271 z"
         id="path6832" />
      <g
         id="path7113"
         style="fill:#4d4d4d"
         transform="matrix(6.1847807,0,0,6.1847807,-353.01745,-76.034193)">
        <path
           style="color:#000000;-inkscape-font-specification:'NanumSquareB, Bold';fill:#4d4d4d;stroke-width:0;-inkscape-stroke:none"
           d="m 62.529913,16.431837 h 8.505959 v 2.14089 c 0,0.195181 -0.0095,0.451355 -0.02831,0.768525 -0.0095,0.304971 -0.02831,0.634336 -0.05661,0.988102 -0.02831,0.353763 -0.06605,0.719727 -0.113242,1.097893 -0.04719,0.365962 -0.09907,0.713628 -0.155684,1.042994 l -1.541501,-0.201276 c 0.12266,-0.695334 0.207578,-1.354071 0.254755,-1.976208 0.04719,-0.634338 0.07076,-1.201581 0.07076,-1.701733 v -0.622137 h -6.93615 z"
           id="path13975" />
        <path
           style="color:#000000;-inkscape-font-specification:'NanumSquareB, Bold';fill:#4d4d4d;-inkscape-stroke:none"
           d="m 62.529913,16.431837 h 8.505959 v 2.14089 c 0,0.195181 -0.0095,0.451355 -0.02831,0.768525 -0.0095,0.304971 -0.02831,0.634336 -0.05661,0.988102 -0.02831,0.353763 -0.06605,0.719727 -0.113242,1.097893 -0.04719,0.365962 -0.09907,0.713628 -0.155684,1.042994 l -1.541501,-0.201276 c 0.12266,-0.695333 0.207578,-1.354072 0.254755,-1.976208 0.04719,-0.634337 0.07076,-1.201582 0.07076,-1.701733 v -0.622137 h -6.93615 z"
           id="path13977" />
      </g>
      <g
         aria-label="365"
         id="text11579"
         style="font-size:13.57px;fill:#4d4d4d;stroke:#000000;stroke-width:0.158245"
         transform="matrix(8.4271979,0,0,8.4271979,-127.12248,-180.3319)">
        <g
           id="path14140"
           style="fill:#4d4d4d">
          <path
             style="color:#000000;-inkscape-font-specification:'godoRounded R, Normal';fill:#4d4d4d;stroke:none;stroke-width:0.0467916;-inkscape-stroke:none"
             d="m 40.604067,27.032947 q 0.424062,-0.463818 0.424062,-1.080034 0,-0.669223 -0.470444,-1.139668 -0.47707,-0.470444 -1.139668,-0.470444 -0.516826,0 -0.934262,0.298169 -0.410811,0.298169 -0.57646,0.775239 -0.09939,0.278291 -0.09939,0.536704 h 0.881255 q 0,-0.119267 0.04638,-0.245161 0.07288,-0.212031 0.258413,-0.344551 0.192153,-0.139145 0.424062,-0.139145 0.298169,0 0.5102,0.212031 0.212032,0.212031 0.212032,0.516826 0,0.298169 -0.212032,0.5102 -0.212031,0.212032 -0.5102,0.212032 H 38.68916 v 0.894506 h 0.728857 q 0.54333,0 0.927637,0.384307 0.384307,0.384307 0.384307,0.927637 0,0.54333 -0.384307,0.927637 -0.384307,0.384306 -0.927637,0.384306 -0.41081,0 -0.748735,-0.231909 -0.324673,-0.231909 -0.470444,-0.602964 -0.09276,-0.238535 -0.09276,-0.47707 h -0.887881 q 0,0.404184 0.159023,0.801743 0.245162,0.622842 0.795118,1.007148 0.556582,0.390933 1.245683,0.390933 0.907759,0 1.550479,-0.649346 0.649345,-0.642719 0.649345,-1.550478 0,-0.569834 -0.278291,-1.066782 -0.271665,-0.483697 -0.735483,-0.781866 z"
             id="path13981" />
          <path
             style="color:#000000;-inkscape-font-specification:'godoRounded R, Normal';fill:#4d4d4d;stroke:none;-inkscape-stroke:none"
             d="m 39.417969,24.320312 c -0.34905,0 -0.665259,0.09935 -0.947266,0.300782 -0.277464,0.201385 -0.474034,0.464828 -0.585937,0.787109 -0.06703,0.187687 -0.09961,0.369647 -0.09961,0.544922 v 0.02344 h 0.927735 v -0.02344 c 0,-0.07648 0.01483,-0.154648 0.04492,-0.236328 v -0.002 c 0.04709,-0.137 0.129935,-0.246273 0.25,-0.332032 0.124481,-0.09014 0.26023,-0.134765 0.410157,-0.134765 0.193233,0 0.356664,0.0676 0.49414,0.205078 0.137391,0.13739 0.205078,0.302229 0.205078,0.5 0,0.193233 -0.0676,0.356664 -0.205078,0.494141 -0.137476,0.137477 -0.300907,0.205078 -0.49414,0.205078 h -0.751953 v 0.941406 h 0.751953 c 0.356703,0 0.659803,0.124647 0.912109,0.376953 0.252306,0.252306 0.376953,0.553453 0.376953,0.910156 0,0.356704 -0.124647,0.659803 -0.376953,0.91211 -0.252306,0.252305 -0.555406,0.376953 -0.912109,0.376953 -0.269471,0 -0.514692,-0.07641 -0.736328,-0.228516 -0.211788,-0.151909 -0.36566,-0.349271 -0.460938,-0.591797 -0.06088,-0.156568 -0.0918,-0.312759 -0.0918,-0.46875 v -0.02344 h -0.933594 v 0.02344 c 0,0.272524 0.05313,0.54297 0.160157,0.810547 0.165024,0.41925 0.432571,0.75891 0.802734,1.017578 0.374771,0.263232 0.795941,0.396485 1.259766,0.396485 0.61075,0 1.134052,-0.219439 1.566406,-0.65625 0.43681,-0.432353 0.65625,-0.957609 0.65625,-1.56836 0,-0.383697 -0.09386,-0.7435 -0.28125,-1.078125 -0.179852,-0.320224 -0.425449,-0.575902 -0.730469,-0.77539 0.275217,-0.308982 0.421875,-0.666123 0.421875,-1.074219 0,-0.45163 -0.159011,-0.838698 -0.476562,-1.15625 -0.321902,-0.317431 -0.708982,-0.476562 -1.15625,-0.476563 z m 0,0.04492 c 0.436194,0 0.808856,0.155017 1.123047,0.464844 0.309706,0.309708 0.46289,0.682381 0.46289,1.123047 0,0.405443 -0.138742,0.759049 -0.417969,1.064453 l -0.01758,0.01953 0.02344,0.01563 c 0.306119,0.196791 0.547231,0.454141 0.726562,0.773438 0.183665,0.327972 0.275391,0.678607 0.275391,1.054687 0,0.599594 -0.213596,1.110552 -0.642578,1.535157 -0.424606,0.428983 -0.93361,0.642578 -1.533203,0.642578 -0.454976,0 -0.865084,-0.128707 -1.232422,-0.386719 -0.363111,-0.25374 -0.625251,-0.586841 -0.78711,-0.998047 -0.101914,-0.254787 -0.149357,-0.511098 -0.152343,-0.769531 h 0.839843 c 0.0029,0.154286 0.03201,0.30915 0.0918,0.46289 0.09874,0.251328 0.258613,0.456208 0.478516,0.613282 0.22893,0.157108 0.483443,0.236328 0.761719,0.236328 0.367735,0 0.683257,-0.130523 0.943359,-0.390625 0.260103,-0.260103 0.392578,-0.577577 0.392578,-0.945313 0,-0.367735 -0.132475,-0.683256 -0.392578,-0.943359 -0.260102,-0.260103 -0.575624,-0.390625 -0.943359,-0.390625 h -0.705078 v -0.847656 h 0.705078 c 0.204325,0 0.382112,-0.07352 0.527343,-0.21875 0.145232,-0.145231 0.21875,-0.323019 0.21875,-0.527344 0,-0.208622 -0.07343,-0.387886 -0.21875,-0.533203 -0.145231,-0.145231 -0.323018,-0.21875 -0.527343,-0.21875 -0.159285,0 -0.305777,0.04719 -0.4375,0.142578 -0.127312,0.09094 -0.217495,0.20976 -0.267578,0.355469 -0.02883,0.07825 -0.04029,0.155191 -0.04297,0.230468 h -0.833985 c 0.0027,-0.162388 0.03115,-0.330586 0.09375,-0.505859 0.108963,-0.313812 0.298077,-0.567499 0.56836,-0.763672 0.274574,-0.196125 0.579871,-0.294922 0.919922,-0.294922 z"
             id="path13983" />
        </g>
        <g
           id="path14142"
           style="fill:#4d4d4d">
          <path
             style="color:#000000;-inkscape-font-specification:'godoRounded R, Normal';fill:#4d4d4d;stroke:none;stroke-width:0.0467916;stroke-linecap:round;stroke-linejoin:bevel;-inkscape-stroke:none"
             d="m 45.050097,30.193538 c -0.36222,0 -0.671432,-0.128102 -0.927636,-0.384306 -0.256205,-0.256205 -0.384307,-0.565417 -0.384307,-0.927637 0,-0.36222 0.128102,-0.671432 0.384307,-0.927637 0.256204,-0.256205 0.565416,-0.384307 0.927636,-0.384307 0.36222,0 0.671432,0.128102 0.927637,0.384307 0.256205,0.256205 0.384307,0.565417 0.384307,0.927637 0,0.36222 -0.128102,0.671432 -0.384307,0.927637 -0.256205,0.256204 -0.565417,0.384306 -0.927637,0.384306 z m 0,-3.511767 c -0.198779,0 -0.218715,0.03534 -0.452832,0.106015 l 1.091018,-2.464863 h -0.927636 l -1.783619,3.862944 h 2.23e-4 c -0.08393,0.242953 -0.12698,0.474862 -0.12698,0.695728 0,0.605173 0.21424,1.121999 0.64272,1.550478 0.432897,0.432897 0.951932,0.649346 1.557104,0.649346 0.605173,0 1.121999,-0.216449 1.550479,-0.649346 0.432897,-0.428479 0.649345,-0.945305 0.649345,-1.550478 0,-0.605173 -0.216448,-1.124208 -0.649345,-1.557105 -0.42848,-0.428479 -0.945306,-0.642719 -1.550479,-0.642719 z"
             id="path13987" />
          <path
             style="color:#000000;-inkscape-font-specification:'godoRounded R, Normal';fill:#4d4d4d;stroke:none;stroke-linecap:round;stroke-linejoin:bevel;-inkscape-stroke:none"
             d="m 44.759766,24.298828 -0.01953,0.01367 -1.785156,3.863281 v 0.002 c -0.08462,0.244962 -0.128906,0.479219 -0.128906,0.703125 0,0.610694 0.218017,1.135987 0.65039,1.56836 0.436752,0.436751 0.963469,0.65625 1.574219,0.65625 0.610751,0 1.134053,-0.21944 1.566406,-0.65625 0.436811,-0.432353 0.65625,-0.957609 0.65625,-1.56836 0,-0.610751 -0.219498,-1.135514 -0.65625,-1.572265 -0.432373,-0.432373 -0.955712,-0.650391 -1.566406,-0.650391 -0.100776,0 -0.159863,0.0092 -0.220703,0.02734 -0.04793,0.01433 -0.113968,0.03779 -0.189453,0.0625 l 1.068359,-2.416016 -0.02148,-0.0332 z m 0.01563,0.04687 h 0.875 l -1.074219,2.431641 0.02734,0.0332 c 0.117915,-0.0356 0.182882,-0.06293 0.240234,-0.08008 0.05735,-0.01715 0.109028,-0.02539 0.207031,-0.02539 0.599651,0 1.108618,0.212134 1.533203,0.636719 0.429042,0.429042 0.642578,0.939469 0.642578,1.539062 0,0.599594 -0.213595,1.110552 -0.642578,1.535157 -0.424605,0.428982 -0.933609,0.642578 -1.533203,0.642578 -0.599593,0 -1.111973,-0.213536 -1.541015,-0.642578 -0.424586,-0.424585 -0.636719,-0.935506 -0.636719,-1.535157 0,-0.217825 0.04372,-0.446556 0.126953,-0.6875 z m 0.27539,3.201172 c -0.367735,0 -0.68521,0.130522 -0.945312,0.390625 -0.260103,0.260103 -0.390625,0.575624 -0.390625,0.943359 0,0.367736 0.130522,0.68521 0.390625,0.945313 0.260102,0.260102 0.577577,0.390625 0.945312,0.390625 0.367736,0 0.683257,-0.130523 0.94336,-0.390625 0.260102,-0.260103 0.390625,-0.577577 0.390625,-0.945313 0,-0.367735 -0.130523,-0.683256 -0.390625,-0.943359 -0.260103,-0.260103 -0.575624,-0.390625 -0.94336,-0.390625 z m 0,0.04687 c 0.356704,0 0.65785,0.124647 0.910156,0.376953 0.252307,0.252307 0.376954,0.553453 0.376954,0.910156 0,0.356704 -0.124647,0.659803 -0.376954,0.91211 -0.252306,0.252305 -0.553452,0.376953 -0.910156,0.376953 -0.356703,0 -0.659804,-0.124648 -0.912109,-0.376953 -0.252307,-0.252307 -0.376953,-0.555406 -0.376953,-0.91211 0,-0.356703 0.124646,-0.657849 0.376953,-0.910156 0.252305,-0.252306 0.555406,-0.376953 0.912109,-0.376953 z"
             id="path13989" />
        </g>
        <g
           id="path14144"
           style="fill:#4d4d4d">
          <path
             style="color:#000000;-inkscape-font-specification:'godoRounded R, Normal';fill:#4d4d4d;stroke:none;stroke-width:0.0467916;-inkscape-stroke:none"
             d="m 50.788194,26.681771 c -0.198779,0 -0.415228,0.03534 -0.649346,0.106015 l 0.569834,-1.583608 h 2.125288 v -0.868003 h -2.734878 l -1.331821,3.670791 h 1.046904 c 0.260622,-0.291543 0.585295,-0.437315 0.974019,-0.437315 0.36222,0 0.671432,0.128102 0.927636,0.384307 0.256205,0.256205 0.384307,0.565417 0.384307,0.927637 0,0.36222 -0.128102,0.671432 -0.384307,0.927637 -0.256204,0.256204 -0.565416,0.384306 -0.927636,0.384306 -0.362221,0 -0.671433,-0.128102 -0.927637,-0.384306 -0.256205,-0.256205 -0.384307,-0.565417 -0.384307,-0.927637 h -0.887881 c 0,0.605173 0.21424,1.121999 0.64272,1.550478 0.432897,0.432897 0.951932,0.649346 1.557105,0.649346 0.605172,0 1.121998,-0.216449 1.550478,-0.649346 0.432897,-0.428479 0.649346,-0.945305 0.649346,-1.550478 0,-0.605173 -0.216449,-1.124208 -0.649346,-1.557105 -0.42848,-0.428479 -0.945306,-0.642719 -1.550478,-0.642719 z"
             id="path13993" />
          <path
             style="color:#000000;-inkscape-font-specification:'godoRounded R, Normal';fill:#4d4d4d;stroke:none;-inkscape-stroke:none"
             d="m 50.082031,24.3125 -1.347656,3.71875 h 1.089844 l 0.0078,-0.0078 c 0.25677,-0.287233 0.574157,-0.429687 0.957031,-0.429687 0.356704,0 0.657851,0.124647 0.910157,0.376953 0.252306,0.252307 0.376953,0.553453 0.376953,0.910156 0,0.356704 -0.124647,0.659803 -0.376953,0.91211 -0.252306,0.252305 -0.553453,0.376953 -0.910157,0.376953 -0.356704,0 -0.659803,-0.124648 -0.912109,-0.376953 C 49.624647,29.540662 49.5,29.237563 49.5,28.880859 v -0.02344 h -0.935547 v 0.02344 c 0,0.610694 0.218017,1.135987 0.650391,1.56836 0.436751,0.436751 0.963468,0.65625 1.574218,0.65625 0.61075,0 1.134053,-0.21944 1.566407,-0.65625 0.43681,-0.432353 0.65625,-0.957609 0.65625,-1.56836 0,-0.610751 -0.219499,-1.135514 -0.65625,-1.572265 -0.432374,-0.432373 -0.955713,-0.650391 -1.566407,-0.650391 -0.188996,0 -0.396063,0.03893 -0.615234,0.101563 l 0.550781,-1.53125 h 2.132813 V 24.3125 Z m 0.0332,0.04687 h 2.695313 v 0.822266 h -2.119141 l -0.589844,1.642578 0.04492,-0.01367 c 0.232365,-0.07015 0.446573,-0.105469 0.642578,-0.105469 0.59965,0 1.108618,0.212135 1.533204,0.636719 0.429042,0.429042 0.642578,0.939469 0.642578,1.539062 0,0.599594 -0.213596,1.110552 -0.642578,1.535157 -0.424606,0.428982 -0.933611,0.642578 -1.533204,0.642578 -0.599593,0 -1.111973,-0.213536 -1.541015,-0.642578 -0.418099,-0.418098 -0.620596,-0.923935 -0.626953,-1.511719 h 0.841797 c 0.0063,0.356116 0.127213,0.668229 0.380859,0.921875 0.260102,0.260102 0.577576,0.390625 0.945312,0.390625 0.367736,0 0.683258,-0.130523 0.94336,-0.390625 0.260103,-0.260103 0.390625,-0.577577 0.390625,-0.945313 0,-0.367735 -0.130522,-0.683256 -0.390625,-0.943359 -0.260102,-0.260103 -0.575624,-0.390625 -0.94336,-0.390625 -0.387593,0 -0.712454,0.151976 -0.974609,0.4375 h -1.013672 z"
             id="path13995" />
        </g>
      </g>
      <g
         id="path15078"
         style="fill:#4d4d4d"
         transform="matrix(6.1847807,0,0,6.1847807,-353.01745,-76.034193)">
        <path
           style="color:#000000;-inkscape-font-specification:'NanumSquareB, Bold';fill:#4d4d4d;stroke-width:0.257051;-inkscape-stroke:none"
           d="m 85.045854,24.097539 v 1.242255 H 73.823931 v -1.242255 h 4.761978 1.478871 z"
           id="path13999" />
        <path
           style="color:#000000;-inkscape-font-specification:'NanumSquareB, Bold';fill:#4d4d4d;-inkscape-stroke:none"
           d="m 73.695312,23.96875 v 1.5 h 11.478516 v -1.5 h -0.128906 -4.980469 -1.478516 z m 0.257813,0.257812 h 4.632812 1.478516 4.853516 v 0.984375 H 73.953125 Z"
           id="path14001" />
      </g>
    </g>
  </g>
</svg>
