<?xml version="1.0" encoding="UTF-8" standalone="no"?>
<!-- Created with Inkscape (http://www.inkscape.org/) -->

<svg
   width="470"
   height="128"
   viewBox="0 0 124.35417 33.866668"
   version="1.1"
   id="svg5"
   xmlns="http://www.w3.org/2000/svg"
   xmlns:svg="http://www.w3.org/2000/svg">
  <defs
     id="defs2">
    <clipPath
       clipPathUnits="userSpaceOnUse"
       id="clipPath4160">
      <path
         d="M 0,400 H 600 V 0 H 0 Z"
         id="path4158" />
    </clipPath>
    <clipPath
       clipPathUnits="userSpaceOnUse"
       id="clipPath4352">
      <path
         d="m 332.608,296.304 h 20.081 v -17.359 h -20.081 z"
         id="path4350" />
    </clipPath>
    <clipPath
       clipPathUnits="userSpaceOnUse"
       id="clipPath4352-5">
      <path
         d="m 332.608,296.304 h 20.081 v -17.359 h -20.081 z"
         id="path4350-0" />
    </clipPath>
    <radialGradient
       fx="0"
       fy="0"
       cx="0"
       cy="0"
       r="1"
       gradientUnits="userSpaceOnUse"
       gradientTransform="matrix(5.634613,5.4028931,4.3950195,-4.5839233,325.12891,305.37061)"
       spreadMethod="pad"
       id="radialGradient4400">
      <stop
         style="stop-opacity:1;stop-color:#ee9664"
         offset="0"
         id="stop4394" />
      <stop
         style="stop-opacity:1;stop-color:#ee9664"
         offset="0.0121155"
         id="stop4396" />
      <stop
         style="stop-opacity:1;stop-color:#f3ab8d"
         offset="1"
         id="stop4398" />
    </radialGradient>
    <radialGradient
       fx="0"
       fy="0"
       cx="0"
       cy="0"
       r="1"
       gradientUnits="userSpaceOnUse"
       gradientTransform="matrix(5.1715393,5.940979,4.2430115,-5.2588501,340.54102,310.10059)"
       spreadMethod="pad"
       id="radialGradient4422">
      <stop
         style="stop-opacity:1;stop-color:#ee9664"
         offset="0"
         id="stop4416" />
      <stop
         style="stop-opacity:1;stop-color:#ee9664"
         offset="0.0121155"
         id="stop4418" />
      <stop
         style="stop-opacity:1;stop-color:#f3ab8d"
         offset="1"
         id="stop4420" />
    </radialGradient>
    <radialGradient
       fx="0"
       fy="0"
       cx="0"
       cy="0"
       r="1"
       gradientUnits="userSpaceOnUse"
       gradientTransform="matrix(5.634552,5.402832,4.3949738,-4.5838623,320.64746,294.70068)"
       spreadMethod="pad"
       id="radialGradient4444">
      <stop
         style="stop-opacity:1;stop-color:#ee9664"
         offset="0"
         id="stop4438" />
      <stop
         style="stop-opacity:1;stop-color:#ee9664"
         offset="0.0121155"
         id="stop4440" />
      <stop
         style="stop-opacity:1;stop-color:#f3ab8d"
         offset="1"
         id="stop4442" />
    </radialGradient>
    <clipPath
       clipPathUnits="userSpaceOnUse"
       id="clipPath4470">
      <path
         d="m 321.883,305.608 h 8.449 v -5.801 h -8.449 z"
         id="path4468" />
    </clipPath>
    <clipPath
       clipPathUnits="userSpaceOnUse"
       id="clipPath4494">
      <path
         d="m 341.811,325.915 h 5.246 v -4.603 h -5.246 z"
         id="path4492" />
    </clipPath>
    <clipPath
       clipPathUnits="userSpaceOnUse"
       id="clipPath4510">
      <path
         d="m 307.033,297.11 h 4.194 v -5.604 h -4.194 z"
         id="path4508" />
    </clipPath>
    <clipPath
       clipPathUnits="userSpaceOnUse"
       id="clipPath4530">
      <path
         d="m 336.986,293.957 h 3.919 v -3.645 h -3.919 z"
         id="path4528" />
    </clipPath>
    <clipPath
       clipPathUnits="userSpaceOnUse"
       id="clipPath4554">
      <path
         d="m 355.765,208.882 h 9.448 v -19.818 h -9.448 z"
         id="path4552" />
    </clipPath>
    <radialGradient
       fx="0"
       fy="0"
       cx="0"
       cy="0"
       r="1"
       gradientUnits="userSpaceOnUse"
       gradientTransform="matrix(7.5566406,2.4313049,2.4313049,-7.5566406,468.73633,282.56885)"
       spreadMethod="pad"
       id="radialGradient4694">
      <stop
         style="stop-opacity:1;stop-color:#f1a87f"
         offset="0"
         id="stop4688" />
      <stop
         style="stop-opacity:1;stop-color:#f1a87f"
         offset="0.0121155"
         id="stop4690" />
      <stop
         style="stop-opacity:1;stop-color:#f6c4a8"
         offset="1"
         id="stop4692" />
    </radialGradient>
    <radialGradient
       fx="0"
       fy="0"
       cx="0"
       cy="0"
       r="1"
       gradientUnits="userSpaceOnUse"
       gradientTransform="matrix(4.9930573,4.3158722,4.3158722,-4.9930573,439.70801,266.9707)"
       spreadMethod="pad"
       id="radialGradient4716">
      <stop
         style="stop-opacity:1;stop-color:#f1a87f"
         offset="0"
         id="stop4710" />
      <stop
         style="stop-opacity:1;stop-color:#f1a87f"
         offset="0.0121155"
         id="stop4712" />
      <stop
         style="stop-opacity:1;stop-color:#f6c4a8"
         offset="1"
         id="stop4714" />
    </radialGradient>
    <radialGradient
       fx="0"
       fy="0"
       cx="0"
       cy="0"
       r="1"
       gradientUnits="userSpaceOnUse"
       gradientTransform="matrix(5.6786652,4.9077911,3.9920197,-4.6192169,451.64063,274.60156)"
       spreadMethod="pad"
       id="radialGradient4738">
      <stop
         style="stop-opacity:1;stop-color:#f1a87f"
         offset="0"
         id="stop4732" />
      <stop
         style="stop-opacity:1;stop-color:#f1a87f"
         offset="0.0121155"
         id="stop4734" />
      <stop
         style="stop-opacity:1;stop-color:#f6c4a8"
         offset="1"
         id="stop4736" />
    </radialGradient>
    <clipPath
       clipPathUnits="userSpaceOnUse"
       id="clipPath4760">
      <path
         d="m 472.222,297.479 h 4.942 v -5.493 h -4.942 z"
         id="path4758" />
    </clipPath>
    <clipPath
       clipPathUnits="userSpaceOnUse"
       id="clipPath4780">
      <path
         d="m 448.301,275.269 h 2.781 v -4.176 h -2.781 z"
         id="path4778" />
    </clipPath>
    <clipPath
       clipPathUnits="userSpaceOnUse"
       id="clipPath4804">
      <path
         d="m 448.207,278.042 h 17.637 v -13.839 h -17.637 z"
         id="path4802" />
    </clipPath>
  </defs>
  <g
     id="layer1">
    <path
       d="M -0.1493242,34.885526 H 126.15097 V -0.03734353 H -0.1493242 Z"
       style="fill:#d1e8f4;fill-opacity:1;fill-rule:nonzero;stroke:none;stroke-width:0.149783"
       id="path4152" />
    <g
       id="g4230"
       transform="matrix(0.21048343,0,0,-0.08024053,126.15097,34.885526)">
      <path
         d="m 0,0 h -600 v 82.864 c 0,0 160.861,20.136 316,20.136 C -139.519,103 0,82.864 0,82.864 Z"
         style="fill:#b5d680;fill-opacity:1;fill-rule:nonzero;stroke:none"
         id="path4232" />
    </g>
    <g
       id="g4162"
       transform="matrix(0.1281228,0,0,-0.09920308,73.165362,7.37111)">
      <path
         d="m 0,0 c 0,0 -42,3.334 -39.333,-20.666 2.666,-24 41.333,-46 128.666,-33.334 l 30,6 c 0,0 36,-2.666 42.667,13.334 6.667,16 -18,41.332 -48.667,38 0,0 1.822,34.08 -56,27.333 -40,-4.667 -54,-20 -56,-33.333"
         style="fill:#ffffff;fill-opacity:1;fill-rule:nonzero;stroke:none"
         id="path4164" />
    </g>
    <g
       id="g7902"
       transform="matrix(1,0,0,1.0638184,23.28915,1.4820442)">
      <g
         id="g4210"
         transform="matrix(0.16761636,0,0,-0.16761636,80.259751,16.960954)">
        <path
           d="m 0,0 c -0.186,-0.559 1.861,-69.801 1.861,-69.801 l 8.749,0.372 c 0,0 1.489,69.988 0.931,70.36 C 10.982,1.303 0,0 0,0"
           style="fill:#a38963;fill-opacity:1;fill-rule:nonzero;stroke:none"
           id="path4212" />
      </g>
      <g
         id="g4222"
         transform="matrix(0.16761636,0,0,-0.16761636,80.259751,16.960954)">
        <path
           d="m 0,0 c -0.038,-0.113 0.017,-3.054 0.127,-7.669 h 11.524 c 0.035,5.18 0.01,8.52 -0.11,8.6 C 10.982,1.303 0,0 0,0"
           style="fill:#927357;fill-opacity:1;fill-rule:nonzero;stroke:none"
           id="path4224" />
      </g>
      <g
         id="g4226"
         transform="matrix(0.16761636,0,0,-0.16761636,80.883237,17.351684)">
        <path
           d="m 0,0 c 0,0 11.168,-0.931 21.964,11.541 0,0 8.562,-0.559 11.913,11.168 3.351,11.727 -12.471,20.476 -25.687,17.125 0,0 -4.095,-1.304 -5.956,-3.537 0,0 -18.056,9.121 -32.946,-1.675 C -45.603,23.826 -23.081,-2.234 0,0"
           style="fill:#589b49;fill-opacity:1;fill-rule:nonzero;stroke:none"
           id="path4228" />
      </g>
    </g>
    <g
       id="g4166"
       transform="matrix(0.16761636,0,0,-0.16761636,99.228007,4.6003291)">
      <path
         d="m 0,0 c 0,0 -14.215,1.128 -13.312,-6.994 0.903,-8.122 13.989,-15.569 43.546,-11.282 l 10.154,2.031 c 0,0 12.183,-0.902 14.44,4.513 2.256,5.415 -6.093,13.988 -16.471,12.86 0,0 0.617,11.535 -18.953,9.251 C 5.866,8.8 1.129,3.61 0.451,-0.902"
         style="fill:#ffffff;fill-opacity:1;fill-rule:nonzero;stroke:none"
         id="path4168" />
    </g>
    <g
       id="g7473"
       transform="matrix(0.52048585,0,0,0.52048585,24.528285,5.0719729)">
      <g
         id="g4170"
         transform="matrix(0.32203825,0,0,-0.32203825,176.81098,47.247322)">
        <path
           d="M 0,0 -1.33,56.487 12.849,54.271 9.524,0.442 Z"
           style="fill:#d2aa72;fill-opacity:1;fill-rule:nonzero;stroke:none"
           id="path4172" />
      </g>
      <g
         id="g4182"
         transform="matrix(0.32203825,0,0,-0.32203825,176.48295,33.310376)">
        <path
           d="m 0,0 h 13.188 l 0.679,10.994 -12.192,1.905 h -1.98 z"
           style="fill:#c38d42;fill-opacity:1;fill-rule:nonzero;stroke:none"
           id="path4184" />
      </g>
      <g
         id="g4186"
         transform="matrix(0.32203825,0,0,-0.32203825,175.09886,29.98369)">
        <path
           d="m 0,0 c 0,0 10.633,-5.981 30.791,1.55 23.66,8.84 -1.55,31.233 -2.88,31.898 C 26.582,34.113 24.317,77.573 -7.754,54.493 -31.455,37.436 -17.279,6.867 0,0"
           style="fill:#86d06e;fill-opacity:1;fill-rule:nonzero;stroke:none"
           id="path4188" />
      </g>
    </g>
    <g
       id="g7465"
       transform="matrix(0.52048585,0,0,0.56014656,22.15604,3.3105047)">
      <g
         id="g4174"
         transform="matrix(0.32203825,0,0,-0.32203825,168.04642,39.772524)">
        <path
           d="m 0,0 -0.802,-23.038 7.813,0.601 0.802,26.644 z"
           style="fill:#947c69;fill-opacity:1;fill-rule:nonzero;stroke:none"
           id="path4176" />
      </g>
      <g
         id="g4178"
         transform="matrix(0.32203825,0,0,-0.32203825,167.98352,41.583665)">
        <path
           d="M 0,0 H 7.713 L 8.008,9.831 0.195,5.624 Z"
           style="fill:#846852;fill-opacity:1;fill-rule:nonzero;stroke:none"
           id="path4180" />
      </g>
      <g
         id="g4190"
         transform="matrix(0.32203825,0,0,-0.32203825,164.69174,40.611273)">
        <path
           d="m 0,0 c 7.568,-2.226 16.479,0.535 22.548,5.106 5.424,4.082 8.33,9.851 7.909,16.422 -0.363,5.68 -3.647,10.779 -8.621,13.53 -4.509,2.494 -9.216,3.806 -14.624,3.206 0,0 -13.823,-2.605 -11.219,-18.832 0,0 -9.616,-15.425 4.007,-19.432"
           style="fill:#569e3e;fill-opacity:1;fill-rule:nonzero;stroke:none"
           id="path4192" />
      </g>
    </g>
    <g
       id="g4234"
       transform="matrix(0.04874829,0,0,-0.04874829,87.424333,17.069775)">
      <path
         d="M 0,0 C -0.072,0.182 -2.837,3.385 1.959,6.209 6.751,9.03 14.955,-2.378 6.467,-6.827 -2.02,-11.273 0,0 0,0"
         style="fill:#f3ab8d;fill-opacity:1;fill-rule:nonzero;stroke:none"
         id="path4236" />
    </g>
    <g
       id="g4238"
       transform="matrix(0.04874829,0,0,-0.04874829,87.844695,30.222528)">
      <path
         d="m 0,0 -0.381,-10.696 c 0,0 -3.824,-7.503 -7.645,-6.386 -3.822,1.117 -7.466,7.159 -7.466,7.159 l 0.229,10.216 z"
         style="fill:#989aae;fill-opacity:1;fill-rule:nonzero;stroke:none"
         id="path4240" />
    </g>
    <g
       id="g4242"
       transform="matrix(0.04874829,0,0,-0.04874829,87.834458,30.610803)">
      <path
         d="m 0,0 c 0,0 2.453,-2.194 2.803,-5.061 0.349,-2.868 1.225,-14.505 -0.176,-16.362 -1.4,-1.855 -47.454,-0.676 -47.979,-0.506 -0.525,0.168 -4.027,6.41 1.752,10.121 0,0 3.851,1.685 7.003,1.181 0,0 15.235,9.952 16.81,11.471 1.577,1.518 2.977,6.749 5.254,3.374 2.276,-3.374 1.926,-5.568 1.926,-5.568 0,0 4.203,-4.218 7.355,-3.88 C -2.1,-4.892 -1.752,0.337 0,0"
         style="fill:#a3b6ba;fill-opacity:1;fill-rule:nonzero;stroke:none"
         id="path4244" />
    </g>
    <g
       id="g4246"
       transform="matrix(0.04874829,0,0,-0.04874829,85.709051,31.186403)">
      <path
         d="m 0,0 c -5.779,-3.711 -2.277,-9.953 -1.752,-10.121 0.524,-0.17 46.578,-1.35 47.979,0.506 1.401,1.856 0.525,13.494 0.175,16.362 C 46.367,7.029 46.308,7.305 46.237,7.572 42.87,5.517 43.036,-5.489 41.673,-6.074 40.097,-6.749 12.606,-7.255 12.08,-6.58 10.016,-3.929 7.712,0.687 7.003,1.181 3.851,1.685 0,0 0,0"
         style="fill:#ede8e5;fill-opacity:1;fill-rule:nonzero;stroke:none"
         id="path4248" />
    </g>
    <g
       id="g4250"
       transform="matrix(0.04874829,0,0,-0.04874829,86.965509,30.847165)">
      <path
         d="M 0,0 C -0.241,1.063 -1.107,2.01 -1.793,2.83 -2.364,3.517 -3.142,4.547 -4.013,4.906 -4.759,5.218 -5.603,5.127 -6.05,4.392 -6.423,3.779 -6.263,2.737 -5.516,2.429 -5.484,2.416 -5.444,2.392 -5.409,2.367 -5.304,2.278 -5.2,2.187 -5.1,2.091 c 0.335,-0.318 0.648,-0.658 0.954,-1.002 0.29,-0.327 0.555,-0.666 0.807,-1.019 0.124,-0.174 0.237,-0.352 0.345,-0.535 0.023,-0.04 0.043,-0.081 0.064,-0.121 -0.024,0.038 0.043,-0.117 0.057,-0.176 C -2.461,-2.569 0.412,-1.804 0,0"
         style="fill:#ede8e5;fill-opacity:1;fill-rule:nonzero;stroke:none"
         id="path4252" />
    </g>
    <g
       id="g4254"
       transform="matrix(0.04874829,0,0,-0.04874829,86.804508,30.937378)">
      <path
         d="M 0,0 C -0.842,1.52 -2.278,2.67 -3.327,4.05 -3.805,4.681 -4.609,4.99 -5.364,4.563 -6.012,4.2 -6.38,3.234 -5.898,2.602 -4.857,1.23 -3.406,0.055 -2.571,-1.446 -1.667,-3.082 0.906,-1.631 0,0"
         style="fill:#ede8e5;fill-opacity:1;fill-rule:nonzero;stroke:none"
         id="path4256" />
    </g>
    <g
       id="g4258"
       transform="matrix(0.04874829,0,0,-0.04874829,86.591137,31.060677)">
      <path
         d="m 0,0 c -1.029,1.348 -1.887,2.799 -2.803,4.217 -1.01,1.57 -3.589,0.131 -2.571,-1.446 0.914,-1.42 1.771,-2.875 2.802,-4.218 0.48,-0.629 1.281,-0.945 2.038,-0.516 C 0.111,-1.6 0.483,-0.63 0,0"
         style="fill:#ede8e5;fill-opacity:1;fill-rule:nonzero;stroke:none"
         id="path4260" />
    </g>
    <g
       id="g4262"
       transform="matrix(0.04874829,0,0,-0.04874829,86.403334,31.184025)">
      <path
         d="M 0,0 C -0.859,1.567 -2.271,2.771 -3.561,4.002 -4.925,5.306 -7.033,3.278 -5.667,1.973 -4.556,0.911 -3.313,-0.1 -2.572,-1.449 -1.674,-3.086 0.898,-1.635 0,0"
         style="fill:#ede8e5;fill-opacity:1;fill-rule:nonzero;stroke:none"
         id="path4264" />
    </g>
    <g
       id="g4266"
       transform="matrix(0.04874829,0,0,-0.04874829,87.962519,31.655128)">
      <path
         d="M 0,0 C 0.285,0.377 0.475,1.163 0.594,2.195 -0.057,2.42 -0.821,2.246 -1.08,1.646 -3.999,0.946 -7.271,1.074 -10.219,0.908 -14.495,0.668 -18.68,0.675 -22.961,0.522 c -8.268,-0.291 -17.345,0.225 -25.597,0.806 -0.324,0.022 0.104,-0.73 -0.102,-0.864 0.285,-0.571 0.561,-0.932 0.681,-0.97 C -47.454,-0.676 -1.4,-1.855 0,0"
         style="fill:#a3b6ba;fill-opacity:1;fill-rule:nonzero;stroke:none"
         id="path4268" />
    </g>
    <g
       id="g4270"
       transform="matrix(0.04874829,0,0,-0.04874829,90.118583,30.300652)">
      <path
         d="m 0,0 1.838,-14.499 13.431,0.919 -0.288,13.086"
         style="fill:#989aae;fill-opacity:1;fill-rule:nonzero;stroke:none"
         id="path4272" />
    </g>
    <g
       id="g4274"
       transform="matrix(0.04874829,0,0,-0.04874829,90.210937,30.787135)">
      <path
         d="m 0,0 c 0,0 -3.592,-3.918 -3.265,-5.714 0.327,-1.796 -0.979,-9.307 -0.979,-9.307 0,0 -2.286,-5.548 -0.49,-6.528 1.796,-0.98 21.387,-0.328 22.856,0 1.47,0.325 0.816,6.038 0.162,6.528 C 17.632,-14.53 15.02,-1.633 14.366,-1.143 13.714,-0.653 12.57,0 12.57,0 12.57,0 14.367,6.695 6.693,6.368 -0.273,6.069 0.653,2.939 0,0"
         style="fill:#a3b6ba;fill-opacity:1;fill-rule:nonzero;stroke:none"
         id="path4276" />
    </g>
    <g
       id="g4278"
       transform="matrix(0.04874829,0,0,-0.04874829,90.257925,31.44476)">
      <path
         d="M 0,0 C 0,0 -3.24,16.668 0.695,18.983 4.63,21.298 15.974,24.076 11.807,0.463"
         style="fill:#aecfd9;fill-opacity:1;fill-rule:nonzero;stroke:none"
         id="path4280" />
    </g>
    <g
       id="g4282"
       transform="matrix(0.04874829,0,0,-0.04874829,89.980148,31.837603)">
      <path
         d="m 0,0 c 1.796,-0.98 21.388,-0.328 22.856,0 1.267,0.28 0.956,4.561 0.427,6.052 C 21.148,8.88 18.207,10.264 10.938,10.12 2.612,9.958 0.49,6.528 0.49,6.528 0.49,6.528 0.03,5.471 -0.252,4.324 -0.555,3.1 -0.762,1.806 -0.762,1.806 -0.728,0.976 -0.526,0.285 0,0"
         style="fill:#ede8e5;fill-opacity:1;fill-rule:nonzero;stroke:none"
         id="path4284" />
    </g>
    <g
       id="g4286"
       transform="matrix(0.04874829,0,0,-0.04874829,90.793966,30.872966)">
      <path
         d="m 0,0 c -3.802,1.361 -8.668,1.386 -11.963,-1.174 -1.412,-1.1 0.569,-3.052 1.964,-1.965 2.449,1.903 6.544,1.432 9.262,0.46 C 0.952,-3.285 1.675,-0.602 0,0"
         style="fill:#ede8e5;fill-opacity:1;fill-rule:nonzero;stroke:none"
         id="path4288" />
    </g>
    <g
       id="g4290"
       transform="matrix(0.04874829,0,0,-0.04874829,90.823717,31.053676)">
      <path
         d="m 0,0 c -3.671,0.355 -7.248,0.841 -10.817,-0.376 -1.685,-0.575 -0.962,-3.259 0.739,-2.678 C -6.757,-1.923 -3.411,-2.448 0,-2.777 1.784,-2.951 1.767,-0.172 0,0"
         style="fill:#ede8e5;fill-opacity:1;fill-rule:nonzero;stroke:none"
         id="path4292" />
    </g>
    <g
       id="g4294"
       transform="matrix(0.04874829,0,0,-0.04874829,91.094358,31.837603)">
      <path
         d="M 0,0 C 0.532,0.117 0.783,0.943 0.859,1.967 -7.258,1.21 -15.438,0.527 -23.594,1.565 -23.531,0.848 -23.329,0.256 -22.856,0 -21.061,-0.98 -1.469,-0.328 0,0"
         style="fill:#a3b6ba;fill-opacity:1;fill-rule:nonzero;stroke:none"
         id="path4296" />
    </g>
    <g
       id="g4298"
       transform="matrix(0.04874829,0,0,-0.04874829,91.01776,23.217724)">
      <path
         d="m 0,0 c 0,0 3.952,-34.295 0.043,-78.423 -0.744,-8.401 -1.463,-16.889 -1.597,-25.325 -0.164,-10.357 -0.345,-20.699 0.015,-31.047 0.118,-3.364 1.931,-7.264 -0.66,-10.084 -3.291,-3.582 -9.136,-2.548 -13.407,-2.956 -2.562,-0.247 -6.341,-1.289 -8.281,1.012 -2.027,2.407 -1.311,7.611 -1.592,10.538 -1.309,13.609 -1.941,27.308 -2.506,40.97 l -2.317,59.184 c 0,0 -16.737,-51.386 -17.367,-53.043 -1.462,-3.844 -1.654,-9.139 -2.037,-11.039 -2.122,-10.542 -3.694,-18.055 -6.167,-28.518 -0.955,-4.043 -1.323,-9.526 -3.057,-13.258 -2.72,-5.854 -10.226,-5.482 -15.598,-5.236 -4.788,0.22 -10.878,1.44 -12.509,6.683 0,0 13.894,49.693 13.894,52.484 0,2.792 9.843,67.002 17.369,88.219 z"
         style="fill:#56679b;fill-opacity:1;fill-rule:nonzero;stroke:none"
         id="path4300" />
    </g>
    <g
       id="g4302"
       transform="matrix(0.04874829,0,0,-0.04874829,87.803468,27.552369)">
      <path
         d="m 0,0 c -0.268,-3.76 -15.687,-45.177 -18.267,-54.23 2.652,-2.144 6.228,-4.716 9.562,-4.87 5.372,-0.246 12.878,-0.618 15.599,5.236 1.733,3.732 2.101,9.215 3.056,13.258 2.473,10.463 4.045,17.976 6.167,28.518 0.383,1.9 0.575,7.195 2.037,11.039 0.63,1.657 17.367,53.043 17.367,53.043 0,0 -5.848,1.78 -11.061,6.41 C 19.251,63.031 11.786,68.86 11.786,68.86 11.786,68.86 0.287,4.029 0,0"
         style="fill:#425690;fill-opacity:1;fill-rule:nonzero;stroke:none"
         id="path4304" />
    </g>
    <g
       id="g4306"
       transform="matrix(0.04874829,0,0,-0.04874829,89.938726,23.209676)">
      <path
         d="M 0,0 21,7 V -0.5 Z"
         style="fill:#f3ab8d;fill-opacity:1;fill-rule:nonzero;stroke:none"
         id="path4308" />
    </g>
    <g
       id="g4310"
       transform="matrix(0.04874829,0,0,-0.04874829,86.682496,15.340468)">
      <path
         d="m 0,0 c -4.193,-0.695 -20.686,8.805 -22.598,10.945 -2.733,3.058 1.336,3.487 1.336,3.487 0,0 -2.209,1.715 -2.166,3.818 0.041,2.103 5.131,0.357 5.131,0.357 0,0 -0.422,1.938 1.203,2.513 1.627,0.571 24.624,-9.096 24.624,-9.096 L 18.089,3.197 14.74,-3.236"
         style="fill:#f6c4a8;fill-opacity:1;fill-rule:nonzero;stroke:none"
         id="path4312" />
    </g>
    <g
       id="g4314"
       transform="matrix(0.04874829,0,0,-0.04874829,86.786939,14.788647)">
      <path
         d="m 0,0 c -2.799,-0.203 -10.949,-7.946 -10.949,-7.946 0,0 -4.197,0.681 -6.763,0.561 -2.565,-0.121 -1.466,-2.076 -1.466,-2.076 1.103,-1.428 12.729,-4.815 12.729,-4.815 l 11.56,-0.696 17.244,-12.56 2,14.5"
         style="fill:#f6c4a8;fill-opacity:1;fill-rule:nonzero;stroke:none"
         id="path4316" />
    </g>
    <g
       id="g4318"
       transform="matrix(0.04874829,0,0,-0.04874829,86.700207,15.097989)">
      <path
         d="m 0,0 c -1.457,1.514 -2.615,3.319 -3.326,5.292 0.574,1.03 1.24,1.993 2.164,2.771 0.739,0.625 2.08,1.68 0.826,2.426 -0.326,0.194 -0.691,0.409 -1.086,0.628 -1.607,0.893 -3.662,1.82 -5.297,1.429 -0.394,-0.093 -0.654,-0.344 -0.938,-0.61 -0.425,-0.397 -2.584,0.361 -3.185,0.535 -0.882,0.255 -1.922,0.64 -2.812,0.159 -0.659,-0.356 -0.763,-0.866 -0.824,-1.41 -0.83,0.057 -1.724,0.391 -2.509,0.398 -1.314,0.01 -2.019,-1.531 -1.143,-2.515 0.132,-0.15 0.296,-0.301 0.469,-0.455 -0.909,-0.237 -1.65,-1.202 -1.057,-2.148 2.132,-3.408 5.88,-4.296 9.254,-5.949 0.363,-0.586 0.753,-1.15 1.182,-1.683 -0.143,-0.048 -0.282,-0.098 -0.441,-0.118 -1.783,-0.217 -1.263,-2.765 0.297,-2.947 3.143,-0.367 6.284,-0.693 9.447,-0.819 0.814,-0.032 1.518,0.634 1.545,1.444 C 2.624,-1.84 1.107,-1.148 0,0"
         style="fill:#f2ac85;fill-opacity:1;fill-rule:nonzero;stroke:none"
         id="path4320" />
    </g>
    <g
       id="g4322"
       transform="matrix(0.04874829,0,0,-0.04874829,87.181976,14.861034)">
      <path
         d="m 0,0 c -4.871,4.678 -20.303,13.58 -22.273,12.486 -1.971,-1.093 0.659,-3.375 0.659,-3.375 0,0 8.442,-6.375 11.155,-7.215 0,0 0.753,-7.256 6.911,-9.459"
         style="fill:#f6c4a8;fill-opacity:1;fill-rule:nonzero;stroke:none"
         id="path4324" />
    </g>
    <path
       d="m 87.454898,15.123792 c 0,0 1.989077,0.702511 2.110606,1.036681 0.12153,0.334218 0,2.582441 0,2.582441 0,0 1.499205,4.014812 1.462937,4.09822 -0.02452,0.05635 -2.587072,1.005873 -2.830131,0.975503 -0.24301,-0.03042 0.09116,-0.972188 -0.09111,-1.245617 -0.18227,-0.273478 -0.845344,-1.216124 -0.845344,-1.216124 l -0.748871,-1.137249 c 0,0 0.999486,-1.150752 1.090597,-1.241863 0.09111,-0.09116 0.731224,-0.633727 0.901843,-1.023714 0.136349,-0.311647 0.170619,-1.316204 0.170619,-1.316204 l -1.340579,-0.901843 z"
       style="fill:#c5d0d2;fill-opacity:1;fill-rule:nonzero;stroke:none;stroke-width:0.0487483"
       id="path4328" />
    <g
       id="g4330"
       transform="matrix(0.04874829,0,0,-0.04874829,87.143221,19.534869)">
      <path
         d="m 0,0 c -7.136,-6.287 -15.557,-17.531 -15.557,-17.531 0,0 -16,-45 -18,-52.5 -2,-7.5 3.537,-15.875 13.037,-18.375 9.5,-2.5 39.197,6.106 39.197,6.106 l 3.583,11.113 -32.317,5.156 14.794,26.106 0.872,37.229"
         style="fill:#56679b;fill-opacity:1;fill-rule:nonzero;stroke:none"
         id="path4332" />
    </g>
    <g
       id="g4334"
       transform="matrix(0.04874829,0,0,-0.04874829,87.286419,19.328332)">
      <path
         d="m 0,0 -3.996,-4.909 c 0,0 3.138,-6.089 14.741,-0.464 10.991,5.329 14.271,11.969 5.99,21.801 L 12.821,13.31"
         style="fill:#56679b;fill-opacity:1;fill-rule:nonzero;stroke:none"
         id="path4336" />
    </g>
    <g
       id="g4338"
       transform="matrix(0.04874829,0,0,-0.04874829,85.977547,18.122504)">
      <path
         d="M 0,0 C -0.143,-0.123 -4.01,0.073 -4.797,-4.058 -5.587,-8.19 4.467,-16.605 7.054,-9.031 9.639,-1.459 0,0 0,0"
         style="fill:#f19a76;fill-opacity:1;fill-rule:nonzero;stroke:none"
         id="path4340" />
    </g>
    <g
       id="g4342"
       transform="matrix(0.04874829,0,0,-0.04874829,87.195353,18.666184)">
      <path
         d="m 0,0 c 0,0 -1.327,-5.666 -1.007,-6.261 2.631,-4.88 2.631,-10.009 2.882,-11.262 0.288,-1.438 10.999,2.672 10.999,2.672 0,0 6.167,7.729 5.816,8.706 -0.35,0.978 -2.701,13.598 -2.701,13.598 z"
         style="fill:#f3ab8d;fill-opacity:1;fill-rule:nonzero;stroke:none"
         id="path4344" />
    </g>
    <g
       id="g4346"
       transform="matrix(0.04874829,0,0,-0.04874829,70.90728,32.747158)">
      <g
         id="g4348" />
      <g
         id="g4360">
        <g
           clip-path="url(#clipPath4352-5)"
           opacity="0.449997"
           id="g4358">
          <g
             transform="translate(352.6895,283.2173)"
             id="g4356">
            <path
               d="M 0,0 C -0.357,1.777 -2.574,13.086 -2.574,13.086 L -18.563,5.633 c 0,0 -1.37,-2.081 -1.518,-2.74 -0.011,-0.043 2.036,-6.82 2.042,-6.935 C -12.637,-4.677 -5.233,-4.199 0,0"
               style="fill:#de8a6e;fill-opacity:1;fill-rule:nonzero;stroke:none"
               id="path4354" />
          </g>
        </g>
      </g>
    </g>
    <g
       id="g4362"
       transform="matrix(0.04874829,0,0,-0.04874829,85.249847,16.848765)">
      <path
         d="M 0,0 C -0.241,-0.29 -4.531,-2.113 -3.465,-6.206 -2.398,-10.297 12.266,-30.862 16.432,-28.171 20.6,-25.478 7.787,-0.265 7.478,-0.285 7.168,-0.306 0,0 0,0"
         style="fill:#5b3116;fill-opacity:1;fill-rule:nonzero;stroke:none"
         id="path4364" />
    </g>
    <g
       id="g4366"
       transform="matrix(0.04874829,0,0,-0.04874829,85.886622,16.932144)">
      <path
         d="m 0,0 c 0,0 -11.789,-5.571 -17.913,1.715 -3.254,3.872 -4.201,7.973 1.543,9.945 -4.965,2.85 0.11,5.955 3.201,7.291 2.835,1.224 5.766,2.242 8.759,3.002 4.471,1.132 9.002,2.267 13.501,3.227 3.787,0.808 7.883,0.527 10.468,-2.713 C 24.565,16.189 35.287,0.052 34.711,-2.993 34.135,-6.038 0.774,0.341 0,0"
         style="fill:#663e25;fill-opacity:1;fill-rule:nonzero;stroke:none"
         id="path4368" />
    </g>
    <g
       id="g4370"
       transform="matrix(0.04874829,0,0,-0.04874829,86.041719,18.360176)">
      <path
         d="m 0,0 c 7.732,-10.344 12.104,-16.274 21.777,-13.301 9.675,2.976 21.261,6.782 19.462,22.638 -0.945,8.337 -19.681,32.107 -32.552,32.492 0,0 -3.632,0.748 -4.598,-3.667 C 3.122,33.744 -3.461,30.302 -7.613,29.405 -11.766,28.509 -7.734,10.345 0,0"
         style="fill:#f3ab8d;fill-opacity:1;fill-rule:nonzero;stroke:none"
         id="path4372" />
    </g>
    <g
       id="g4374"
       transform="matrix(0.04874829,0,0,-0.04874829,86.514734,16.826151)">
      <path
         d="m 0,0 c -0.044,-0.169 -0.039,-0.349 0.035,-0.532 0.137,-0.346 0.374,-0.697 0.588,-1.002 0.361,-0.513 1.028,-1.254 1.709,-0.804 1.283,0.848 6.985,4.938 9.963,5.71 0,0 -0.777,1.37 -1.979,1.333 C 9.843,4.69 9.369,4.621 8.902,4.543 7.346,4.288 5.857,3.775 4.418,3.142 3.462,2.722 2.606,2.173 1.73,1.612 1.258,1.308 0.189,0.72 0,0"
         style="fill:#663e25;fill-opacity:1;fill-rule:nonzero;stroke:none"
         id="path4376" />
    </g>
    <g
       id="g4378"
       transform="matrix(0.04874829,0,0,-0.04874829,86.017443,17.162558)">
      <path
         d="m 0,0 c 0.176,0.014 0.351,-0.023 0.518,-0.129 0.316,-0.198 0.619,-0.495 0.878,-0.761 0.442,-0.447 1.049,-1.236 0.485,-1.826 -1.065,-1.108 -6.111,-5.983 -7.406,-8.772 0,0 -1.207,1.009 -0.957,2.183 0.101,0.464 0.252,0.917 0.413,1.362 0.532,1.485 1.303,2.858 2.184,4.16 0.585,0.866 1.278,1.608 1.989,2.37 C -1.511,-1.002 -0.742,-0.057 0,0"
         style="fill:#663e25;fill-opacity:1;fill-rule:nonzero;stroke:none"
         id="path4380" />
    </g>
    <g
       id="g4382"
       transform="matrix(0.04874829,0,0,-0.04874829,70.90728,32.747158)">
      <g
         id="g4384">
        <g
           id="g4390">
          <g
             id="g4392">
            <path
               d="m 318.198,306.365 c -0.187,-1.5 0.172,-2.935 0.878,-4.163 v 0 c 0.038,-0.073 0.069,-0.146 0.109,-0.221 v 0 c 0.639,-1.65 2.186,-2.962 3.858,-3.549 v 0 c 1.133,-0.398 2.335,-0.363 3.429,0.011 v 0 c 1.36,0.237 2.671,0.965 3.749,2.329 v 0 c 1.751,1.542 2.484,4.125 1.981,6.145 v 0 c -0.753,3.028 -3.717,5.275 -6.956,5.393 v 0 c -0.066,0.002 -0.132,0.003 -0.199,0.003 v 0 c -3.19,0.001 -6.439,-2.664 -6.849,-5.948"
               style="fill:url(#radialGradient4400);stroke:none"
               id="path4402" />
          </g>
        </g>
      </g>
    </g>
    <g
       id="g4404"
       transform="matrix(0.04874829,0,0,-0.04874829,70.90728,32.747158)">
      <g
         id="g4406">
        <g
           id="g4412">
          <g
             id="g4414">
            <path
               d="m 333.998,311.385 c -0.141,-1.684 0.231,-3.304 0.924,-4.704 v 0 c 0.039,-0.083 0.071,-0.164 0.108,-0.25 v 0 c 0.641,-1.871 2.128,-3.384 3.714,-4.083 v 0 c 1.074,-0.474 2.205,-0.462 3.228,-0.069 v 0 c 1.272,0.235 2.487,1.022 3.469,2.529 v 0 c 1.612,1.694 2.238,4.578 1.717,6.864 v 0 c -0.781,3.421 -3.621,6.018 -6.672,6.229 v 0 c -0.1,0.006 -0.201,0.01 -0.301,0.01 v 0 c -2.963,0 -5.885,-2.892 -6.187,-6.526"
               style="fill:url(#radialGradient4422);stroke:none"
               id="path4424" />
          </g>
        </g>
      </g>
    </g>
    <g
       id="g4426"
       transform="matrix(0.04874829,0,0,-0.04874829,70.90728,32.747158)">
      <g
         id="g4428">
        <g
           id="g4434">
          <g
             id="g4436">
            <path
               d="m 313.716,295.696 c -0.187,-1.501 0.172,-2.935 0.879,-4.163 v 0 c 0.038,-0.073 0.07,-0.145 0.108,-0.223 v 0 c 0.639,-1.649 2.189,-2.961 3.859,-3.548 v 0 c 1.131,-0.398 2.335,-0.362 3.43,0.01 v 0 c 1.357,0.238 2.67,0.966 3.746,2.33 v 0 c 1.753,1.544 2.485,4.124 1.983,6.145 v 0 c -0.752,3.028 -3.717,5.275 -6.957,5.393 v 0 c -0.066,0.003 -0.132,0.004 -0.198,0.004 v 0 c -3.189,0 -6.439,-2.666 -6.85,-5.948"
               style="fill:url(#radialGradient4444);stroke:none"
               id="path4446" />
          </g>
        </g>
      </g>
    </g>
    <g
       id="g4456"
       transform="matrix(0.04874829,0,0,-0.04874829,86.346733,17.873001)">
      <path
         d="m 0,0 c 0.965,-1.558 0.808,-3.402 -0.348,-4.118 -1.156,-0.717 -2.874,-0.035 -3.84,1.524 -0.966,1.558 -0.811,3.401 0.346,4.118 C -2.687,2.24 -0.966,1.558 0,0"
         style="fill:#312435;fill-opacity:1;fill-rule:nonzero;stroke:none"
         id="path4458" />
    </g>
    <g
       id="g4460"
       transform="matrix(0.04874829,0,0,-0.04874829,87.258379,17.252269)">
      <path
         d="m 0,0 c 0.965,-1.558 0.808,-3.402 -0.348,-4.118 -1.156,-0.717 -2.874,-0.035 -3.84,1.524 -0.966,1.558 -0.811,3.401 0.346,4.118 C -2.687,2.24 -0.966,1.558 0,0"
         style="fill:#312435;fill-opacity:1;fill-rule:nonzero;stroke:none"
         id="path4462" />
    </g>
    <g
       id="g4464"
       transform="matrix(0.04874829,0,0,-0.04874829,70.90728,32.747158)">
      <g
         id="g4466" />
      <g
         id="g4478">
        <g
           clip-path="url(#clipPath4470)"
           opacity="0.600006"
           id="g4476">
          <g
             transform="translate(321.8828,305.6079)"
             id="g4474">
            <path
               d="m 0,0 c 0,0 1.764,-4.805 4.219,-4.412 2.455,0.393 4.23,4.145 4.23,4.145 0,0 -0.336,-4.564 -4.86,-5.51 C 1.382,-6.239 0,0 0,0"
               style="fill:#f2ac85;fill-opacity:1;fill-rule:nonzero;stroke:none"
               id="path4472" />
          </g>
        </g>
      </g>
    </g>
    <g
       id="g4480"
       transform="matrix(0.04874829,0,0,-0.04874829,86.801272,18.447865)">
      <path
         d="m 0,0 c -0.177,0.329 13.036,11.742 13.427,12.242 0.39,0.502 3.655,-3.664 0.459,-8.148 C 10.69,-0.39 3.374,-6.291 0,0"
         style="fill:#ffffff;fill-opacity:1;fill-rule:nonzero;stroke:none"
         id="path4482" />
    </g>
    <g
       id="g4484"
       transform="matrix(0.04874829,0,0,-0.04874829,86.801272,18.447865)">
      <path
         d="m 0,0 c -0.177,0.329 13.036,11.742 13.427,12.242 0.39,0.502 3.655,-3.664 0.459,-8.148 C 10.69,-0.39 3.374,-6.291 0,0 Z"
         style="fill:none;stroke:#f0946e;stroke-width:1;stroke-linecap:butt;stroke-linejoin:miter;stroke-miterlimit:10;stroke-dasharray:none;stroke-opacity:1"
         id="path4486" />
    </g>
    <g
       id="g4488"
       transform="matrix(0.04874829,0,0,-0.04874829,70.90728,32.747158)">
      <g
         id="g4490" />
      <g
         id="g4502">
        <g
           clip-path="url(#clipPath4494)"
           opacity="0.600006"
           id="g4500">
          <g
             transform="translate(342.085,325.3877)"
             id="g4498">
            <path
               d="M 0,0 C -0.729,-0.551 0.147,-1.669 0.874,-1.117 2.108,-0.179 3.693,-2.118 3.541,-3.313 3.424,-4.218 4.831,-4.377 4.949,-3.47 5.263,-1.027 2.238,1.694 0,0"
               style="fill:#f2ac85;fill-opacity:1;fill-rule:nonzero;stroke:none"
               id="path4496" />
          </g>
        </g>
      </g>
    </g>
    <g
       id="g4504"
       transform="matrix(0.04874829,0,0,-0.04874829,70.90728,32.747158)">
      <g
         id="g4506" />
      <g
         id="g4518">
        <g
           clip-path="url(#clipPath4510)"
           opacity="0.600006"
           id="g4516">
          <g
             transform="translate(307.8047,296.9082)"
             id="g4514">
            <path
               d="M 0,0 C 0.652,0.641 1.633,-0.389 0.979,-1.026 -0.129,-2.111 1.558,-3.964 2.761,-3.986 3.674,-4.003 3.625,-5.419 2.711,-5.402 0.248,-5.354 -2.002,-1.965 0,0"
               style="fill:#f2ac85;fill-opacity:1;fill-rule:nonzero;stroke:none"
               id="path4512" />
          </g>
        </g>
      </g>
    </g>
    <g
       id="g4520"
       transform="matrix(0.04874829,0,0,-0.04874829,87.26714,16.721751)">
      <path
         d="m 0,0 c 0.241,-0.583 6.841,-8.521 7.665,-8.865 0.826,-0.345 -3,6.682 -4.227,8.727"
         style="fill:#663e25;fill-opacity:1;fill-rule:nonzero;stroke:none"
         id="path4522" />
    </g>
    <g
       id="g4524"
       transform="matrix(0.04874829,0,0,-0.04874829,70.90728,32.747158)">
      <g
         id="g4526" />
      <g
         id="g4538">
        <g
           clip-path="url(#clipPath4530)"
           opacity="0.600006"
           id="g4536">
          <g
             transform="translate(339.4453,293.5952)"
             id="g4534">
            <path
               d="m 0,0 c -0.622,-0.638 -1.297,-1.224 -1.974,-1.808 -1.098,-0.949 -0.137,-2.064 0.962,-1.114 0.676,0.585 1.352,1.17 1.973,1.808 0.428,0.437 0.659,0.958 0.371,1.292 C 1.097,0.452 0.428,0.439 0,0"
               style="fill:#f2ac85;fill-opacity:1;fill-rule:nonzero;stroke:none"
               id="path4532" />
          </g>
        </g>
      </g>
    </g>
    <g
       id="g4540"
       transform="matrix(0.04874829,0,0,-0.04874829,88.206831,18.803454)">
      <path
         d="m 0,0 c -0.928,-0.017 -1.739,-0.75 -2.186,-2.817 -1.498,-6.948 -16.939,-10.759 -17.306,-10.759 0,0 -0.237,-1.027 -0.496,-2.252 2.013,-1.562 5.868,-3.188 11.852,-0.312 C -0.889,-12.658 1.625,-6.345 0,0"
         style="fill:#56679b;fill-opacity:1;fill-rule:nonzero;stroke:none"
         id="path4542" />
    </g>
    <g
       id="g4544"
       transform="matrix(0.04874829,0,0,-0.04874829,87.86569,23.331834)">
      <path
         d="m 0,0 c 0,0 -0.021,11.096 1.401,12.062 1.422,0.968 8.411,4.394 9.93,4.056 1.52,-0.339 2.69,-3.827 2.69,-3.827 0,0 3.57,-2.313 2.684,-4.373 0,0 1.507,-1.971 -0.138,-3.588 0,0 1.615,-2.189 -0.459,-2.934 -2.072,-0.746 -4.247,-0.728 -4.247,-0.728 0,0 -2.651,-5.091 -6.135,-5.717 l -3.203,-0.41 z"
         style="fill:#f3ab8d;fill-opacity:1;fill-rule:nonzero;stroke:none"
         id="path4546" />
    </g>
    <g
       id="g4548"
       transform="matrix(0.04874829,0,0,-0.04874829,70.90728,32.747158)">
      <g
         id="g4550" />
      <g
         id="g4562">
        <g
           clip-path="url(#clipPath4554)"
           opacity="0.449997"
           id="g4560">
          <g
             transform="translate(364.582,201.0596)"
             id="g4558">
            <path
               d="m 0,0 c 0.886,2.06 -2.685,4.373 -2.685,4.373 0,0 -0.829,2.463 -1.997,3.449 0.1,-1.797 0.179,-4.62 -0.27,-5.183 -0.67,-0.837 0.669,-6.195 0.669,-6.195 0,0 -3.682,-3.014 -3.85,-4.186 -0.112,-0.782 -0.374,-2.827 -0.684,-4.253 2.36,1.66 3.973,4.745 3.973,4.745 0,0 2.175,-0.018 4.247,0.728 2.074,0.745 0.459,2.934 0.459,2.934 C 1.507,-1.971 0,0 0,0"
               style="fill:#de8a6e;fill-opacity:1;fill-rule:nonzero;stroke:none"
               id="path4556" />
          </g>
        </g>
      </g>
    </g>
    <g
       id="g4564"
       transform="matrix(0.04874829,0,0,-0.04874829,88.294139,18.951318)">
      <path
         d="m 0,0 29.834,-6.251 c 0,0 -0.938,59.938 -4.072,65.134 -0.739,1.223 -2.729,2.134 -3.889,2.851 -6.293,3.886 -13.054,7.01 -19.798,10.006 -2.287,1.017 -4.495,2.183 -6.848,3.048 -2.345,0.861 -4.802,1.483 -6.872,2.939 -1.277,0.898 -2.25,2.114 -3.89,1.277 -1.953,-0.996 -2.34,-3.209 -3.287,-4.938 -1.369,-2.497 -4.617,-6.286 -1.549,-8.859 1.046,-0.877 2.463,-1.325 3.613,-2.054 1.289,-0.817 2.5,-1.741 3.81,-2.528 C -7.362,57.267 -1.904,53.707 3.63,50.262 4.969,49.429 6.705,48.627 7.834,47.499 8.666,46.667 3.104,17.554 3.104,17.554 l -7.77,-9.555"
         style="fill:#56679b;fill-opacity:1;fill-rule:nonzero;stroke:none"
         id="path4566" />
    </g>
    <g
       id="g4568"
       transform="matrix(0.04874829,0,0,-0.04874829,87.545585,15.143691)">
      <path
         d="m 0,0 c 0,0 -3.003,3.604 -3.604,3.003 -0.601,-0.6 -6.488,-11.413 -5.527,-12.133 0.961,-0.721 4.325,-2.523 4.566,-2.523"
         style="fill:#56679b;fill-opacity:1;fill-rule:nonzero;stroke:none"
         id="path4570" />
    </g>
    <g
       id="g4572"
       transform="matrix(0.04874829,0,0,-0.04874829,88.19831,23.816651)">
      <path
         d="m 0,0 c 0,0 12.3,-3.196 34.3,3.804 l 16,7.5 -10.5,1.5 c 0,0 -18,-8.5 -39.8,-12.804"
         style="fill:#425690;fill-opacity:1;fill-rule:nonzero;stroke:none"
         id="path4574" />
    </g>
    <g
       id="g4588"
       transform="matrix(0.04874829,0,0,-0.04874829,92.786694,21.115669)">
      <path
         d="m 0,0 c 0,0 -15.362,-41.792 -16.028,-49.123 -0.666,-7.329 0.7,-12.114 12.235,-15.959 12.768,-4.255 31.387,-9.043 31.387,-9.043 l 1.377,12.555 -27.717,9.586 c 0,0 6.863,16.578 12.399,30.763 C 19.071,-7.34 0.224,6.66 0,0"
         style="fill:#9dcfce;fill-opacity:1;fill-rule:nonzero;stroke:none"
         id="path4590" />
    </g>
    <g
       id="g4592"
       transform="matrix(0.04874829,0,0,-0.04874829,94.103996,30.3603)">
      <path
         d="m 0,0 -13.521,1.832 -1.117,-8.041 c -3.795,-1.79 -14.655,-6.799 -18.513,-7.301 -4.707,-0.612 15.037,-5.219 15.037,-5.219 l 5.687,1.92 c 0.343,-0.441 0.732,-0.79 1.183,-0.98 3.277,-1.387 11.525,4.458 11.525,4.458 z"
         style="fill:#f6c4a8;fill-opacity:1;fill-rule:nonzero;stroke:none"
         id="path4594" />
    </g>
    <g
       id="g4596"
       transform="matrix(0.04874829,0,0,-0.04874829,94.150885,30.93709)">
      <path
         d="m 0,0 c 0.015,-2.583 -0.405,-13.008 -1.842,-14.513 -1.433,-1.503 -41.261,6.194 -41.709,6.399 -0.449,0.203 -3.862,4.201 1.652,6.9 0,0 3.592,1.101 6.339,0.327 1.821,-0.574 3.696,-1.018 5.558,-1.436 C -4.908,-7.961 -0.015,2.58 0,0"
         style="fill:#bdb09d;fill-opacity:1;fill-rule:nonzero;stroke:none"
         id="path4598" />
    </g>
    <g
       id="g4600"
       transform="matrix(0.04874829,0,0,-0.04874829,92.108362,30.996266)">
      <path
         d="m 0,0 c -5.514,-2.699 -1.528,-6.765 -1.08,-6.967 0.448,-0.205 39.704,-7.835 41.138,-6.332 1.436,1.505 2.301,3.945 1.03,3.566 C 39.618,-10.17 10.765,-7.359 10.05,-7.086 1.414,-3.779 0,0 0,0"
         style="fill:#ede8e5;fill-opacity:1;fill-rule:nonzero;stroke:none"
         id="path4602" />
    </g>
    <g
       id="g4604"
       transform="matrix(0.04874829,0,0,-0.04874829,94.061102,31.64456)">
      <path
         d="M 0,0 C 0.292,0.306 0.541,0.983 0.754,1.888 0.199,2.155 -0.498,2.079 -0.789,1.573 -3.453,1.252 -6.346,1.703 -8.98,1.86 c -3.822,0.225 -7.538,0.662 -11.355,0.969 -7.369,0.594 -17.814,2.577 -23.054,5.693 0.867,-0.514 0.635,-1.75 1.241,-2.419 1.765,-1.948 5.458,-2.468 7.871,-2.846 3.346,-0.526 6.726,-0.948 10.089,-1.358 6.509,-0.794 13.035,-1.658 19.584,-2.048 C -3.706,-0.203 -0.738,-0.776 0,0"
         style="fill:#949687;fill-opacity:1;fill-rule:nonzero;stroke:none"
         id="path4606" />
    </g>
    <g
       id="g4608"
       transform="matrix(0.04874829,0,0,-0.04874829,93.981598,24.001695)">
      <path
         d="m 0,0 c 0,0 -8.351,-13.894 -8.127,-48.575 l -2.679,-26.405 c 0,0 -5.483,-54.864 -5.793,-56.289 -0.308,-1.422 19.578,-2.31 19.578,-2.31 l 7.502,58.402 16.127,66.803 z"
         style="fill:#582434;fill-opacity:1;fill-rule:nonzero;stroke:none"
         id="path4610" />
    </g>
    <g
       id="g4612"
       transform="matrix(0.04874829,0,0,-0.04874829,95.907444,30.971604)">
      <path
         d="m 0,0 c 0,0 -4.792,-7.76 -4.584,-9.731 0.207,-1.973 0.413,-4.483 1.342,-4.662 0.929,-0.178 19.288,0 19.288,0 0,0 3.093,1.436 2.991,4.662 -0.102,3.227 -2.435,9.963 -2.435,9.963 z"
         style="fill:#bdb09d;fill-opacity:1;fill-rule:nonzero;stroke:none"
         id="path4614" />
    </g>
    <g
       id="g4616"
       transform="matrix(0.04874829,0,0,-0.04874829,96.835469,31.445998)">
      <path
         d="M 0,0 C -0.006,0.177 -0.02,0.359 -0.037,0.544 -2.033,2.356 -5.577,3.766 -11.656,3.676 -18.532,3.574 -21.909,2.097 -23.552,0.814 -23.615,0.505 -23.645,0.227 -23.621,0 c 0.207,-1.973 0.413,-4.482 1.342,-4.661 0.929,-0.179 19.288,0 19.288,0 0,0 3.093,1.435 2.991,4.661"
         style="fill:#e6e1da;fill-opacity:1;fill-rule:nonzero;stroke:none"
         id="path4618" />
    </g>
    <g
       id="g4620"
       transform="matrix(0.04874829,0,0,-0.04874829,96.691034,31.672507)">
      <path
         d="m 0,0 c -1.814,1.85 -5.205,3.888 -9.621,4.021 -5.981,0.176 -9.695,-3.498 -9.9,-3.765 l -0.1,-0.107 c 0.094,-0.083 0.194,-0.143 0.305,-0.164 0.929,-0.178 19.288,0 19.288,0 0,0 0.024,0.013 0.028,0.015"
         style="fill:#949687;fill-opacity:1;fill-rule:nonzero;stroke:none"
         id="path4622" />
    </g>
    <g
       id="g4624"
       transform="matrix(0.04874829,0,0,-0.04874829,96.032313,30.549488)">
      <path
         d="m 0,0 -3.197,-9.488 c 0,0 2.374,-2.683 8.354,-2.683 5.983,0 8.869,3.094 8.869,3.094 0,0 -3.27,10.299 -3.476,11.223 C 10.4,2.818 2.57,7.15 -0.442,6.312 -1.609,5.985 0,0 0,0"
         style="fill:#f6c4a8;fill-opacity:1;fill-rule:nonzero;stroke:none"
         id="path4626" />
    </g>
    <g
       id="g4628"
       transform="matrix(0.04874829,0,0,-0.04874829,93.152067,22.87908)">
      <path
         d="m 0,0 c 2.474,5.137 3.649,8.524 6.158,14.953 1.738,4.449 0.975,8.906 -0.862,12.695 l -7.89,9.026 c -2.65,1.635 -4.827,1.736 -4.901,-0.5 0,0 -1.758,-4.927 -6.348,-17.174 C -9.504,14.767 -2.273,4.871 0,0"
         style="fill:#92c2c4;fill-opacity:1;fill-rule:nonzero;stroke:none"
         id="path4630" />
    </g>
    <g
       id="g4632"
       transform="matrix(0.04874829,0,0,-0.04874829,92.246705,16.414671)">
      <path
         d="m 0,0 c -4.041,-0.669 -19.936,8.486 -21.778,10.548 -2.634,2.948 1.288,3.361 1.288,3.361 0,0 -2.13,1.653 -2.089,3.679 0.04,2.026 4.946,0.344 4.946,0.344 0,0 -0.407,1.868 1.158,2.422 1.569,0.551 27.191,-10.796 27.191,-10.796 l 6.133,-5.557 -2.644,-7.119"
         style="fill:#f6c4a8;fill-opacity:1;fill-rule:nonzero;stroke:none"
         id="path4634" />
    </g>
    <g
       id="g4636"
       transform="matrix(0.04874829,0,0,-0.04874829,92.784837,16.445807)">
      <path
         d="m 0,0 -13.684,-2.558 c 0,0 -11.205,3.265 -12.268,4.641 0,0 -1.06,1.884 1.413,2.001 2.473,0.116 6.518,-0.541 6.518,-0.541 0,0 7.854,7.462 10.552,7.658"
         style="fill:#f6c4a8;fill-opacity:1;fill-rule:nonzero;stroke:none"
         id="path4638" />
    </g>
    <g
       id="g4640"
       transform="matrix(0.04874829,0,0,-0.04874829,92.263747,16.180952)">
      <path
         d="m 0,0 c -1.403,1.458 -2.52,3.198 -3.205,5.1 0.554,0.992 1.194,1.92 2.085,2.671 0.713,0.601 2.006,1.619 0.797,2.337 -0.315,0.187 -0.667,0.395 -1.046,0.605 -1.551,0.861 -3.531,1.754 -5.107,1.377 -0.378,-0.09 -0.629,-0.332 -0.903,-0.588 -0.409,-0.382 -2.491,0.349 -3.069,0.516 -0.85,0.246 -1.853,0.617 -2.71,0.153 -0.635,-0.343 -0.736,-0.835 -0.794,-1.358 -0.8,0.055 -1.662,0.376 -2.419,0.383 -1.267,0.01 -1.945,-1.476 -1.102,-2.424 0.128,-0.144 0.286,-0.29 0.452,-0.438 -0.876,-0.228 -1.589,-1.158 -1.017,-2.07 2.054,-3.285 5.665,-4.14 8.918,-5.733 0.349,-0.566 0.724,-1.109 1.139,-1.622 -0.138,-0.047 -0.273,-0.095 -0.425,-0.114 -1.718,-0.209 -1.217,-2.665 0.286,-2.841 3.029,-0.353 6.057,-0.667 9.104,-0.788 0.785,-0.032 1.463,0.61 1.489,1.392 C 2.529,-1.774 1.067,-1.107 0,0"
         style="fill:#f2ac85;fill-opacity:1;fill-rule:nonzero;stroke:none"
         id="path4642" />
    </g>
    <g
       id="g4644"
       transform="matrix(0.04874829,0,0,-0.04874829,92.728095,15.95261)">
      <path
         d="m 0,0 c -4.694,4.508 -19.566,13.088 -21.466,12.034 -1.899,-1.055 0.635,-3.253 0.635,-3.253 0,0 8.136,-6.144 10.751,-6.954 0,0 0.726,-6.993 6.66,-9.116"
         style="fill:#f6c4a8;fill-opacity:1;fill-rule:nonzero;stroke:none"
         id="path4646" />
    </g>
    <g
       id="g4648"
       transform="matrix(0.04874829,0,0,-0.04874829,96.469954,24.302755)">
      <path
         d="M 0,0 C 0,0 6.695,-14.763 2.477,-49.187 L 2.095,-75.726 c 0,0 3.998,-49.154 4.14,-50.602 0.143,-1.448 -23.731,-0.385 -23.731,-0.385 l -1.577,53.244 -8.323,68.219 z"
         style="fill:#692434;fill-opacity:1;fill-rule:nonzero;stroke:none"
         id="path4650" />
    </g>
    <path
       d="m 93.390004,20.53926 c 0,0 -0.534331,0.453992 -0.538572,0.578593 -0.0042,0.124552 0.232627,1.09747 0.320764,1.25639 0.08819,0.15887 0.77812,0.842126 0.77812,0.842126 0,0 -0.05708,1.168643 -0.02593,1.262143 0.0312,0.0934 0.907693,-0.02589 2.308133,-1.037315 0,0 -0.09672,-0.60989 -0.208642,-0.987836 -0.111927,-0.377897 -0.719477,-4.669014 -1.165864,-5.210266 -0.187096,-0.226778 -1.884025,-1.28481 -1.884025,-1.28481 l -0.176761,0.694029 1.430177,1.199744 0.11256,1.734513 -0.122018,0.392911 z"
       style="fill:#9dcfce;fill-opacity:1;fill-rule:nonzero;stroke:none;stroke-width:0.0487483"
       id="path4654" />
    <g
       id="g4656"
       transform="matrix(0.04874829,0,0,-0.04874829,92.242278,19.656481)">
      <path
         d="m 0,0 c 2.465,-3.102 2.614,-7.085 0.328,-8.906 -2.284,-1.821 -6.138,-0.78 -8.605,2.319 -2.469,3.097 -2.617,7.085 -0.33,8.905 C -6.321,4.137 -2.468,3.097 0,0"
         style="fill:#f2ac85;fill-opacity:1;fill-rule:nonzero;stroke:none"
         id="path4658" />
    </g>
    <g
       id="g4660"
       transform="matrix(0.04874829,0,0,-0.04874829,92.518339,16.787756)">
      <path
         d="m 0,0 c 4.313,-8.022 1.307,-18.021 -6.715,-22.336 -8.022,-4.313 -18.021,-1.308 -22.335,6.714 C -33.365,-7.6 -30.358,2.4 -22.335,6.714 -14.315,11.028 -4.315,8.022 0,0"
         style="fill:#663e25;fill-opacity:1;fill-rule:nonzero;stroke:none"
         id="path4662" />
    </g>
    <g
       id="g4664"
       transform="matrix(0.04874829,0,0,-0.04874829,92.528246,17.138466)">
      <path
         d="m 0,0 c 3.16,-5.878 0.958,-13.205 -4.92,-16.365 -5.878,-3.161 -13.204,-0.959 -16.365,4.919 -3.162,5.878 -0.959,13.205 4.92,16.366 C -10.488,8.08 -3.161,5.878 0,0"
         style="fill:#593625;fill-opacity:1;fill-rule:nonzero;stroke:none"
         id="path4666" />
    </g>
    <g
       id="g4668"
       transform="matrix(0.04874829,0,0,-0.04874829,93.812934,18.230808)">
      <path
         d="m 0,0 c 9.285,-10.749 8.438,-26.698 -1.894,-35.625 -10.33,-8.93 -25.549,-8.392 -34.839,2.356 -9.289,10.749 -9.124,27.633 1.206,36.562 C -25.197,12.223 -9.29,10.748 0,0"
         style="fill:#f6c4a8;fill-opacity:1;fill-rule:nonzero;stroke:none"
         id="path4670" />
    </g>
    <g
       id="g4672"
       transform="matrix(0.04874829,0,0,-0.04874829,94.282039,18.325853)">
      <path
         d="m 0,0 c 1.405,-3.705 0.334,-7.544 -2.396,-8.583 -2.732,-1.04 -6.086,1.124 -7.494,4.826 -1.407,3.702 -0.336,7.546 2.396,8.584 C -4.763,5.865 -1.409,3.7 0,0"
         style="fill:#f6c4a8;fill-opacity:1;fill-rule:nonzero;stroke:none"
         id="path4674" />
    </g>
    <g
       id="g4676"
       transform="matrix(0.04874829,0,0,-0.04874829,70.90728,32.747158)">
      <g
         id="g4678">
        <g
           id="g4684">
          <g
             id="g4686">
            <path
               d="m 462.445,287.784 c -0.768,-1.498 -0.991,-3.254 -0.785,-4.996 v 0 c 0.002,-0.101 0.004,-0.2 0.017,-0.301 v 0 c -0.035,-2.155 0.937,-4.493 2.318,-6.125 v 0 c 0.933,-1.109 2.111,-1.786 3.307,-2.047 v 0 c 1.404,-0.554 2.957,-0.557 4.535,0.262 v 0 c 2.296,0.609 4.012,2.945 4.324,5.42 v 0 c 0.465,3.702 -1.504,7.894 -4.582,9.957 v 0 c -1.114,0.747 -2.39,1.11 -3.647,1.11 v 0 c -2.224,0 -4.387,-1.136 -5.487,-3.28"
               style="fill:url(#radialGradient4694);stroke:none"
               id="path4696" />
          </g>
        </g>
      </g>
    </g>
    <g
       id="g4698"
       transform="matrix(0.04874829,0,0,-0.04874829,70.90728,32.747158)">
      <g
         id="g4700">
        <g
           id="g4706">
          <g
             id="g4708">
            <path
               d="m 433.199,268.919 c -0.101,-1.397 0.3,-2.811 1.02,-4.08 v 0 c 0.036,-0.075 0.07,-0.15 0.11,-0.226 v 0 c 0.677,-1.659 2.179,-3.133 3.767,-3.933 v 0 c 1.075,-0.544 2.196,-0.679 3.197,-0.49 v 0 c 1.253,0.03 2.442,0.535 3.382,1.673 v 0 c 1.558,1.21 2.113,3.556 1.551,5.55 v 0 c -0.845,2.987 -3.716,5.553 -6.741,6.132 v 0 c -0.343,0.066 -0.686,0.098 -1.024,0.098 v 0 c -2.658,0 -5.059,-1.952 -5.262,-4.724"
               style="fill:url(#radialGradient4716);stroke:none"
               id="path4718" />
          </g>
        </g>
      </g>
    </g>
    <g
       id="g4720"
       transform="matrix(0.04874829,0,0,-0.04874829,70.90728,32.747158)">
      <g
         id="g4722">
        <g
           id="g4728">
          <g
             id="g4730">
            <path
               d="m 445.033,275.9 c -0.254,-1.431 0.021,-2.825 0.636,-4.039 v 0 c 0.034,-0.072 0.062,-0.144 0.095,-0.218 v 0 c 0.531,-1.616 1.952,-2.953 3.528,-3.599 v 0 c 1.065,-0.439 2.224,-0.462 3.295,-0.16 v 0 c 1.314,0.16 2.611,0.796 3.713,2.051 v 0 c 1.759,1.394 2.59,3.836 2.208,5.802 v 0 c -0.573,2.943 -3.307,5.248 -6.412,5.521 v 0 c -0.159,0.014 -0.319,0.021 -0.479,0.021 v 0 c -2.974,0 -6.044,-2.345 -6.584,-5.379"
               style="fill:url(#radialGradient4738);stroke:none"
               id="path4740" />
          </g>
        </g>
      </g>
    </g>
    <g
       id="g4750"
       transform="matrix(0.04874829,0,0,-0.04874829,93.148592,17.964808)">
      <path
         d="m 0,0 c -4.336,-1.221 -7.11,-4.785 -6.563,-9.349 0.115,-0.97 1.595,-0.683 1.481,0.276 -0.441,3.697 1.855,6.606 5.357,7.594 C 1.205,-1.218 0.933,0.265 0,0"
         style="fill:#593625;fill-opacity:1;fill-rule:nonzero;stroke:none"
         id="path4752" />
    </g>
    <g
       id="g4754"
       transform="matrix(0.04874829,0,0,-0.04874829,70.90728,32.747158)">
      <g
         id="g4756" />
      <g
         id="g4768">
        <g
           clip-path="url(#clipPath4760)"
           opacity="0.600006"
           id="g4766">
          <g
             transform="translate(472.6426,297.2212)"
             id="g4764">
            <path
               d="m 0,0 c -0.885,-0.404 -0.233,-1.768 0.648,-1.361 1.499,0.688 2.7,-1.692 2.265,-2.897 C 2.581,-5.172 4.008,-5.661 4.339,-4.747 5.229,-2.281 2.715,1.244 0,0"
               style="fill:#f2ac85;fill-opacity:1;fill-rule:nonzero;stroke:none"
               id="path4762" />
          </g>
        </g>
      </g>
    </g>
    <g
       id="g4770"
       transform="matrix(0.04874829,0,0,-0.04874829,92.027288,18.852968)">
      <path
         d="M 0,0 C 4.994,9.553 6.855,20.65 6.855,20.65 7.63,8.395 0,0 0,0 m 12.725,38.4 c 0,0 -5.691,0.897 -8.098,-2.78 0,0 -10.223,-2.221 -16.611,-10.566 -13.954,-18.227 -5.225,-33.356 3.24,-40.987 4.045,-3.647 9.656,-5.283 9.656,-5.283 0,0 -6.005,7.128 0.146,16.636 6.149,9.506 14.132,14.813 9.219,26.729 -0.178,0.444 12.59,-4.837 18.937,-5.981 6.662,-1.2 8.153,-6 8.149,-5.987 0,0 -1.279,5.137 2.858,6.01 C 36.963,32.014 19.495,37.942 12.725,38.4"
         style="fill:#663e25;fill-opacity:1;fill-rule:nonzero;stroke:none"
         id="path4772" />
    </g>
    <g
       id="g4774"
       transform="matrix(0.04874829,0,0,-0.04874829,70.90728,32.747158)">
      <g
         id="g4776" />
      <g
         id="g4788">
        <g
           clip-path="url(#clipPath4780)"
           opacity="0.600006"
           id="g4786">
          <g
             transform="translate(448.3594,275.269)"
             id="g4784">
            <path
               d="m 0,0 c 0,0 -0.697,-3.872 2.723,-4.176 0,0 -1.89,1.447 -2.723,4.176"
               style="fill:#f2ac85;fill-opacity:1;fill-rule:nonzero;stroke:none"
               id="path4782" />
          </g>
        </g>
      </g>
    </g>
    <g
       id="g4790"
       transform="matrix(0.04874829,0,0,-0.04874829,92.393901,19.350542)">
      <path
         d="m 0,0 c 1.03,-1.537 1.012,-3.385 -0.045,-4.126 -1.053,-0.744 -2.744,-0.1 -3.777,1.435 -1.032,1.535 -1.016,3.384 0.04,4.127 C -2.726,2.176 -1.036,1.532 0,0"
         style="fill:#312435;fill-opacity:1;fill-rule:nonzero;stroke:none"
         id="path4792" />
    </g>
    <g
       id="g4794"
       transform="matrix(0.04874829,0,0,-0.04874829,93.440272,18.61941)">
      <path
         d="m 0,0 c 1.03,-1.537 1.012,-3.385 -0.045,-4.126 -1.053,-0.744 -2.744,-0.1 -3.777,1.435 -1.032,1.535 -1.016,3.384 0.04,4.127 C -2.726,2.176 -1.036,1.532 0,0"
         style="fill:#312435;fill-opacity:1;fill-rule:nonzero;stroke:none"
         id="path4796" />
    </g>
    <g
       id="g4798"
       style="fill:#a02c2c"
       transform="matrix(0.04874829,0,0,-0.04874829,70.90728,32.747158)">
      <g
         id="g4800"
         style="fill:#a02c2c" />
      <g
         id="g4812"
         style="fill:#a02c2c">
        <g
           clip-path="url(#clipPath4804)"
           opacity="0.600006"
           id="g4810"
           style="fill:#a02c2c">
          <g
             transform="translate(464.6221,277.7124)"
             id="g4808"
             style="fill:#a02c2c">
            <path
               d="m 0,0 c -3.404,-6.063 -9.479,-10.096 -15.98,-12.242 -0.785,-0.261 -0.415,-1.488 0.372,-1.232 6.831,2.258 13.171,6.51 16.744,12.881 C 1.542,0.131 0.404,0.724 0,0"
               style="fill:#a02c2c;fill-opacity:1;fill-rule:nonzero;stroke:none"
               id="path4806" />
          </g>
        </g>
      </g>
    </g>
    <g
       id="g4814"
       transform="matrix(0.04874829,0,0,-0.04874829,93.920662,24.020833)">
      <path
         d="m 0,0 -2.479,0.858 -3.088,-12.741 c 2.115,-0.582 4.009,-1.093 5.567,-1.509 z"
         style="fill:#92c2c4;fill-opacity:1;fill-rule:nonzero;stroke:none"
         id="path4816" />
    </g>
    <g
       id="g4818"
       transform="matrix(0.04874829,0,0,-0.04874829,93.972458,19.614991)">
      <path
         d="m 0,0 c 0.764,-1.692 1.341,-3.474 1.884,-5.246 1.162,-3.793 4.177,-10.918 0.352,-14.034 -3.396,-2.766 -10.707,-4.424 -11.903,1.361 -0.006,0.028 -1.414,6.837 -1.414,6.837"
         style="fill:#f6c4a8;fill-opacity:1;fill-rule:nonzero;stroke:none"
         id="path4820" />
    </g>
    <g
       id="g4822"
       transform="matrix(0.04874829,0,0,-0.04874829,93.475884,20.316343)">
      <path
         d="m 0,0 12.21,7.698 -1.552,5.51 c 0,0 -2.796,-3.752 -5.774,-6.371 C 2.279,4.549 -0.558,3.349 -0.558,3.349 Z"
         style="fill:#f2ac85;fill-opacity:1;fill-rule:nonzero;stroke:none"
         id="path4824" />
    </g>
    <g
       id="g4826"
       transform="matrix(0.04874829,0,0,-0.04874829,93.80798,24.391301)">
      <path
         d="m 0,0 c 0,0 -0.018,9.247 1.168,10.054 1.185,0.805 7.009,3.661 8.275,3.379 1.267,-0.284 2.242,-3.191 2.242,-3.191 0,0 2.975,-1.926 2.237,-3.642 0,0 1.256,-1.644 -0.114,-2.991 0,0 1.344,-1.824 -0.383,-2.446 -1.727,-0.621 -3.54,-0.606 -3.54,-0.606 0,0 -2.209,-4.242 -5.114,-4.763 L 1.77,-5.451 Z"
         style="fill:#f6c4a8;fill-opacity:1;fill-rule:nonzero;stroke:none"
         id="path4828" />
    </g>
    <g
       id="g4830"
       transform="matrix(0.04874829,0,0,-0.04874829,94.48665,24.069581)">
      <path
         d="m 0,0 c 0.738,1.717 -2.237,3.643 -2.237,3.643 0,0 -0.692,2.053 -1.665,2.876 0.083,-1.498 0.15,-3.851 -0.226,-4.321 -0.558,-0.698 0.559,-5.161 0.559,-5.161 0,0 -3.069,-2.513 -3.209,-3.489 -0.093,-0.652 -0.312,-2.357 -0.571,-3.545 1.967,1.384 3.312,3.954 3.312,3.954 0,0 1.813,-0.015 3.54,0.606 1.727,0.623 0.383,2.447 0.383,2.447 C 1.256,-1.644 0,0 0,0"
         style="fill:#f2ac85;fill-opacity:1;fill-rule:nonzero;stroke:none"
         id="path4832" />
    </g>
    <g
       id="g4834"
       transform="matrix(0.04874829,0,0,-0.04874829,95.532261,23.908005)">
      <path
         d="m 0,0 c 1.596,0.532 15.96,2.66 15.96,2.66 0,0 -0.192,4.348 -1.596,6.916 C 13.922,10.385 0,0 0,0"
         style="fill:#f2ac85;fill-opacity:1;fill-rule:nonzero;stroke:none"
         id="path4836" />
    </g>
    <g
       id="g4838"
       transform="matrix(0.04874829,0,0,-0.04874829,95.532261,23.908005)">
      <path
         d="m 0,0 15.96,2.66 c 0,0 3.856,-11.706 4.84,-16.074 l -26.119,-13.717 -15.428,15.959"
         style="fill:#692434;fill-opacity:1;fill-rule:nonzero;stroke:none"
         id="path4840" />
    </g>
  </g>
</svg>
