<svg xmlns="http://www.w3.org/2000/svg" height="48" width="48"><path d="M-.4 36.4v-3.05q0-2.2 2.2-3.475T7.5 28.6q.45 0 .8.025.35.025.75.025-.45.95-.7 1.95-.25 1-.25 2.15v3.65Zm12 0v-3.65q0-3.45 3.425-5.55Q18.45 25.1 24 25.1q5.6 0 9 2.1 3.4 2.1 3.4 5.55v3.65Zm28.3 0v-3.65q0-1.1-.225-2.125T39 28.65q.4 0 .75-.025t.75-.025q3.6 0 5.75 1.275t2.15 3.475v3.05ZM7.5 27.2q-1.55 0-2.65-1.1-1.1-1.1-1.1-2.65 0-1.55 1.1-2.65 1.1-1.1 2.65-1.1 1.55 0 2.65 1.1 1.1 1.1 1.1 2.65 0 1.55-1.1 2.65-1.1 1.1-2.65 1.1Zm33 0q-1.55 0-2.65-1.1-1.1-1.1-1.1-2.65 0-1.55 1.1-2.65 1.1-1.1 2.65-1.1 1.55 0 2.65 1.1 1.1 1.1 1.1 2.65 0 1.55-1.1 2.65-1.1 1.1-2.65 1.1ZM24 23.6q-2.65 0-4.525-1.85Q17.6 19.9 17.6 17.2q0-2.65 1.875-4.525Q21.35 10.8 24 10.8q2.7 0 4.55 1.875Q30.4 14.55 30.4 17.2q0 2.7-1.85 4.55Q26.7 23.6 24 23.6Z"/></svg>